<svg width="13" height="12" viewBox="0 0 13 12" fill="currentColor" xmlns="http://www.w3.org/2000/svg">
<path d="M12.498 5.23426C12.9832 5.23426 13.1858 4.62657 12.7916 4.34645L6.79515 0.0941384C6.70952 0.0329742 6.60612 0 6.49996 0C6.3938 0 6.2904 0.0329742 6.20477 0.0941384L0.208276 4.34645C-0.185837 4.62504 0.016715 5.23426 0.503469 5.23426H1.47541V10.9591H0.344881C0.275794 10.9591 0.219267 11.0142 0.219267 11.0816V11.8775C0.219267 11.9449 0.275794 12 0.344881 12H12.655C12.7241 12 12.7807 11.9449 12.7807 11.8775V11.0816C12.7807 11.0142 12.7241 10.9591 12.655 10.9591H11.5245V5.23426H12.498ZM4.44303 10.9591H2.60593V5.23426H4.44303V10.9591ZM7.41066 10.9591H5.57356V5.23426H7.41066V10.9591ZM10.394 10.9591H8.54119V5.23426H10.394V10.9591ZM2.24322 4.19185L6.49996 1.17329L10.7567 4.19185H2.24322Z" fill="currentColor"/>
</svg>
