<svg width="22" height="22" viewBox="0 0 22 22" fill="none" xmlns="http://www.w3.org/2000/svg">
<path d="M4.16768 7.5928C2.18904 7.59427 0.631115 6.19082 0.468335 4.28004C0.325624 2.60488 1.43461 0.912057 3.38351 0.519592C4.29849 0.335509 5.15625 0.520328 5.95008 0.991581C6.1136 1.08804 6.2407 1.09319 6.41166 1.01441C8.04094 0.263349 9.75645 -0.0702097 11.5507 0.0122595C12.1439 0.0395037 12.7333 0.117555 13.3131 0.250095C13.8705 0.37748 14.2058 0.820016 14.1114 1.3001C13.9947 1.89064 13.5576 2.19696 12.9481 2.07252C11.3605 1.75 9.79436 1.81038 8.24832 2.2971C8.0625 2.35527 7.88337 2.43405 7.69606 2.4856C7.45077 2.5526 7.39206 2.65495 7.47753 2.92003C7.92871 4.32127 7.60835 5.5561 6.56329 6.58991C5.88021 7.26366 5.02469 7.56261 4.16768 7.5928ZM5.80811 4.02085C5.80662 3.02607 5.05739 2.2971 4.03388 2.29489C3.08694 2.29268 2.31392 3.07614 2.31986 4.03116C2.32581 4.98913 3.11146 5.74976 4.09037 5.74608C5.05293 5.74313 5.80885 4.98324 5.80811 4.02085Z" fill="currentColor"/>
<path d="M7.66906 17.7674C7.66683 19.5862 6.27466 21.0824 4.44914 21.307C2.57011 21.5374 0.672501 20.1156 0.491882 18.115C0.41904 17.3124 0.602632 16.5819 1.00847 15.8986C1.0984 15.7477 1.11178 15.6262 1.03523 15.4649C0.285992 13.8788 -0.0581504 12.2081 0.00800215 10.4578C0.0325306 9.81429 0.113549 9.17516 0.268153 8.5478C0.395998 8.02648 0.849403 7.72974 1.34666 7.83283C1.9123 7.9499 2.21334 8.36225 2.09664 8.92407C1.76662 10.5153 1.82237 12.0851 2.32111 13.6359C2.38578 13.8369 2.47274 14.032 2.53444 14.2338C2.59761 14.4429 2.70316 14.4664 2.90757 14.398C4.87802 13.736 6.94138 14.7963 7.52189 16.7609C7.61926 17.0893 7.67501 17.4243 7.66906 17.7674ZM4.03588 19.5007C5.01627 19.5044 5.79524 18.7431 5.79747 17.7799C5.80044 16.8418 5.02296 16.0429 4.10723 16.0415C3.08967 16.04 2.3174 16.7763 2.30996 17.7549C2.30327 18.7408 3.05028 19.4971 4.03588 19.5007Z" fill="currentColor"/>
<path d="M21.9963 10.6728C21.9963 11.6926 21.9108 12.4503 21.7429 13.1969C21.6195 13.7463 21.172 14.057 20.6688 13.9583C20.1084 13.8486 19.8081 13.4134 19.901 12.8413C19.9478 12.5512 20.008 12.2625 20.0437 11.971C20.2325 10.4328 20.0155 8.94758 19.4454 7.50805C19.3562 7.28199 19.2224 7.35268 19.0678 7.40275C17.3196 7.97194 15.4598 7.17228 14.6846 5.51995C13.6551 3.32642 15.1254 0.760304 17.5418 0.487125C19.4528 0.271379 21.4128 1.63875 21.537 3.88014C21.5771 4.60543 21.3742 5.28433 20.9906 5.90285C20.8844 6.07367 20.8851 6.2099 20.9698 6.38735C21.6537 7.82393 21.9822 9.34078 21.9963 10.6728ZM17.9134 5.74822C18.9005 5.7519 19.6721 4.99789 19.6765 4.02594C19.681 3.09227 18.9013 2.2985 17.9759 2.29408C16.9732 2.28966 16.1957 3.04367 16.1942 4.02299C16.1927 4.98979 16.9457 5.74453 17.9134 5.74822Z" fill="currentColor"/>
<path d="M21.6775 17.9611C21.6277 19.3852 21.0026 20.4801 19.7152 21.1296C18.439 21.7739 17.1813 21.6502 16.0025 20.8476C15.8278 20.729 15.7015 20.701 15.5023 20.7909C14.2305 21.3645 12.8963 21.6811 11.4952 21.7459C10.5319 21.7901 9.58718 21.701 8.64915 21.5059C8.15561 21.4035 7.82856 20.972 7.88282 20.5317C7.94303 20.0457 8.32657 19.6628 8.78889 19.6864C9.13898 19.704 9.48461 19.7946 9.83321 19.8432C11.4142 20.0634 12.9394 19.8447 14.4208 19.2718C14.623 19.1938 14.6742 19.0951 14.6155 18.8749C14.0833 16.8913 15.3536 14.8627 17.359 14.4746C19.4142 14.077 21.3594 15.4311 21.6492 17.4656C21.6723 17.6291 21.6693 17.7962 21.6775 17.9611ZM19.8051 17.9486C19.8007 17.0024 19.0314 16.2241 18.1008 16.2227C17.1293 16.2212 16.3556 16.9951 16.357 17.9678C16.3585 18.9449 17.1026 19.6959 18.0725 19.6996C19.041 19.7026 19.8096 18.9257 19.8051 17.9486Z" fill="currentColor"/>
</svg>
