<svg width="4" height="8" viewBox="0 0 4 8" fill="none" xmlns="http://www.w3.org/2000/svg">
<path d="M2.42856 6.57143V3.14286H0.714277V4H1.57142V6.57143H0.285706V7.42857H3.71428V6.57143H2.42856ZM1.99999 0.571426C1.87285 0.571426 1.74856 0.609129 1.64284 0.679767C1.53712 0.750405 1.45473 0.850806 1.40607 0.968273C1.35741 1.08574 1.34468 1.215 1.36949 1.3397C1.39429 1.4644 1.45552 1.57895 1.54542 1.66885C1.63533 1.75876 1.74987 1.81998 1.87458 1.84479C1.99928 1.86959 2.12854 1.85686 2.246 1.80821C2.36347 1.75955 2.46387 1.67715 2.53451 1.57144C2.60515 1.46572 2.64285 1.34143 2.64285 1.21428C2.64285 1.04379 2.57512 0.880274 2.45456 0.759715C2.334 0.639156 2.17049 0.571426 1.99999 0.571426Z" fill="black"/>
</svg>
