<svg width="16" height="17" viewBox="0 0 16 17" fill="none" xmlns="http://www.w3.org/2000/svg">
<path fill-rule="evenodd" clip-rule="evenodd" d="M8 0.701172C5.82733 0.701172 5.55467 0.710271 4.70133 0.747966C3.40133 0.805808 2.25933 1.11647 1.34267 2.0101C0.426 2.90373 0.107333 4.01703 0.048 5.28435C0.00933333 6.11624 0 6.38206 0 8.50012C0 10.6182 0.00933333 10.884 0.048 11.7159C0.107333 12.9832 0.426 14.0965 1.34267 14.9901C2.25933 15.8838 3.40133 16.1944 4.70133 16.2523C5.55467 16.29 5.82733 16.2991 8 16.2991C10.1727 16.2991 10.4453 16.29 11.2987 16.2523C12.5987 16.1944 13.7407 15.8838 14.6573 14.9901C15.574 14.0965 15.8927 12.9832 15.952 11.7159C15.9907 10.884 16 10.6182 16 8.50012C16 6.38206 15.9907 6.11624 15.952 5.28435C15.8927 4.01703 15.574 2.90373 14.6573 2.0101C13.7407 1.11647 12.5987 0.805808 11.2987 0.747966C10.4453 0.710271 10.1727 0.701172 8 0.701172ZM8 2.10547C10.136 2.10547 10.3893 2.11327 11.2327 2.15096C12.1433 2.19126 12.988 2.36933 13.638 3.003C14.288 3.63666 14.4707 4.4601 14.512 5.34788C14.5507 6.17002 14.5587 6.41699 14.5587 8.49931C14.5587 10.5816 14.5507 10.8286 14.512 11.6507C14.4707 12.5385 14.288 13.362 13.638 13.9956C12.988 14.6293 12.1433 14.8074 11.2327 14.8477C10.3893 14.8853 10.136 14.8931 8 14.8931C5.864 14.8931 5.61067 14.8853 4.76734 14.8477C3.85667 14.8074 3.012 14.6293 2.362 13.9956C1.712 13.362 1.52934 12.5385 1.488 11.6507C1.44934 10.8286 1.44134 10.5816 1.44134 8.49931C1.44134 6.41699 1.44934 6.17002 1.488 5.34788C1.52934 4.4601 1.712 3.63666 2.362 3.003C3.012 2.36933 3.85667 2.19126 4.76734 2.15096C5.61067 2.11327 5.864 2.10547 8 2.10547ZM3.8916 8.50085C3.8916 6.2892 5.73094 4.49609 7.9996 4.49609C10.2683 4.49609 12.1076 6.2892 12.1076 8.50085C12.1076 10.7125 10.2683 12.5056 7.9996 12.5056C5.73094 12.5056 3.8916 10.7125 3.8916 8.50085ZM7.99967 11.0997C6.52701 11.0997 5.33301 9.9357 5.33301 8.50004C5.33301 7.06438 6.52701 5.90039 7.99967 5.90039C9.47234 5.90039 10.6663 7.06438 10.6663 8.50004C10.6663 9.9357 9.47234 11.0997 7.99967 11.0997ZM13.2305 4.33627C13.2305 4.85313 12.8007 5.27214 12.2705 5.27214C11.7404 5.27214 11.3105 4.85313 11.3105 4.33627C11.3105 3.8194 11.7404 3.40039 12.2705 3.40039C12.8007 3.40039 13.2305 3.8194 13.2305 4.33627Z" fill="#194049"/>
</svg>
