<svg width="16" height="15" viewBox="0 0 16 15" fill="none" xmlns="http://www.w3.org/2000/svg">
<path d="M7.76758 0.0620117C3.66336 0.0620117 0.335938 3.38943 0.335938 7.49365C0.335938 10.6437 2.29324 13.335 5.05793 14.4176C4.99065 13.8304 4.9356 12.9252 5.0824 12.2829C5.21697 11.7019 5.95095 8.58852 5.95095 8.58852C5.95095 8.58852 5.73076 8.14201 5.73076 7.48754C5.73076 6.45383 6.33018 5.68315 7.0764 5.68315C7.71253 5.68315 8.01836 6.16024 8.01836 6.72908C8.01836 7.3652 7.61466 8.31939 7.40058 9.20629C7.2232 9.9464 7.77369 10.5519 8.50157 10.5519C9.82275 10.5519 10.8381 9.15736 10.8381 7.15112C10.8381 5.3712 9.55974 4.12954 7.73088 4.12954C5.61454 4.12954 4.37288 5.71373 4.37288 7.35297C4.37288 7.98909 4.61754 8.67415 4.92337 9.04726C4.98454 9.12066 4.99065 9.18794 4.9723 9.26134C4.91725 9.49377 4.78881 10.0014 4.76434 10.1054C4.73376 10.24 4.65424 10.2706 4.51356 10.2033C3.58384 9.76902 3.00276 8.41726 3.00276 7.32239C3.00276 4.97974 4.70317 2.8267 7.91438 2.8267C10.4895 2.8267 12.4957 4.66168 12.4957 7.12054C12.4957 9.68339 10.8809 11.7447 8.64225 11.7447C7.88991 11.7447 7.18039 11.3532 6.94184 10.8884C6.94184 10.8884 6.56873 12.3074 6.47698 12.656C6.31183 13.3044 5.85921 14.1118 5.55338 14.6072C6.25067 14.8213 6.98466 14.9375 7.75534 14.9375C11.8596 14.9375 15.187 11.6101 15.187 7.50589C15.1992 3.38943 11.8718 0.0620117 7.76758 0.0620117Z" fill="#194049"/>
</svg>
