<svg width="19" height="15" viewBox="0 0 19 15" fill="none" xmlns="http://www.w3.org/2000/svg">
<path d="M18.4273 0.0683974C17.6332 0.628545 16.754 1.05697 15.8235 1.33717C15.324 0.762913 14.6603 0.355896 13.922 0.171165C13.1837 -0.0135665 12.4065 0.0329014 11.6955 0.304284C10.9844 0.575666 10.3739 1.05887 9.94647 1.68854C9.51902 2.31821 9.29527 3.06397 9.30547 3.82495V4.65421C7.84815 4.692 6.40411 4.36879 5.10195 3.71337C3.79979 3.05795 2.67993 2.09066 1.84212 0.897659C1.84212 0.897659 -1.47493 8.36101 5.98842 11.6781C4.28058 12.8373 2.2461 13.4186 0.183594 13.3366C7.64694 17.4829 16.7688 13.3366 16.7688 3.80007C16.7681 3.56909 16.7458 3.33867 16.7025 3.11179C17.5488 2.27713 18.1461 1.22332 18.4273 0.0683974Z" fill="#194049"/>
</svg>
