<svg width="31" height="29" viewBox="0 0 31 29" fill="none" xmlns="http://www.w3.org/2000/svg">
<path d="M5.88047 4.45917C5.47087 4.82144 5.10688 5.23447 4.79796 5.68796L6.34083 7.13876C6.61447 6.6586 6.97502 6.2361 7.40183 5.89018L5.88047 4.45917ZM10.7001 13.8033H10.6993C10.5513 13.8197 10.4015 13.8291 10.2492 13.83C7.78733 13.8489 5.75741 11.8328 5.75397 9.36401C5.75397 9.29517 5.75569 9.22633 5.75913 9.15835L3.94864 7.45543C3.76364 8.05777 3.66382 8.6954 3.66382 9.3554C3.6621 12.9618 6.605 15.8961 10.2243 15.8969C11.0219 15.8969 11.7869 15.7532 12.4943 15.4908L10.7001 13.8033ZM10.2243 2.80271C9.23985 2.80185 8.30277 3.02213 7.46206 3.4171L9.16413 5.01763C9.49714 4.93674 9.84392 4.89372 10.2019 4.89114C12.6491 4.87565 14.6756 6.88061 14.6902 9.33217C14.692 9.61011 14.667 9.88203 14.6188 10.1471L16.3114 11.7381C16.598 11.0041 16.7563 10.2064 16.7563 9.37175C16.758 5.74733 13.8332 2.80615 10.2243 2.80271ZM12.6664 13.0865L14.211 14.5382C14.6446 14.2035 15.0353 13.8162 15.3726 13.3843L13.8478 11.9507C13.526 12.3964 13.1259 12.7828 12.6664 13.0865Z" fill="#C0C0C0"/>
<path d="M19.2044 19.2331L17.196 17.3451C17.3991 17.4716 17.6005 17.611 17.8001 17.7616C18.3758 18.1962 18.8413 18.6875 19.2044 19.2331Z" fill="#C0C0C0"/>
<path d="M19.0856 26.4251C18.8102 26.7616 18.4789 26.9827 18.028 26.9018C17.2114 26.7556 16.8801 25.8865 17.3766 25.2213C18.9049 23.1742 18.1382 20.085 15.8312 18.968C15.1557 18.6411 14.543 18.6101 13.821 18.962C11.4211 20.1306 8.97729 20.1314 6.57736 18.9448C5.92424 18.6213 5.34426 18.6161 4.71266 18.9173C3.22055 19.6289 2.43233 20.8181 2.31014 22.4505C2.27916 22.8661 2.27486 23.2869 2.33681 23.706C2.41684 24.2532 2.64315 24.7256 2.9951 25.1481C3.41072 25.6472 3.37458 26.2797 2.9168 26.6686C2.45643 27.0593 1.8317 26.9879 1.40662 26.4862C0.635608 25.5767 0.25269 24.5294 0.227736 23.3308C0.201921 22.1235 0.309479 20.9515 0.879129 19.8621C1.75942 18.1781 3.11127 17.0904 4.96994 16.6585C5.753 16.4769 6.5111 16.5802 7.21671 16.9596C8.32503 17.556 9.49961 17.8055 10.7516 17.7074C11.465 17.6523 12.1723 17.5147 12.785 17.1601C13.1309 16.9605 13.47 16.8159 13.8021 16.7204L20.2059 22.7422C20.2077 22.8386 20.2085 22.9367 20.2068 23.0348C20.2662 24.2283 19.9194 25.4037 19.0856 26.4251Z" fill="#C0C0C0"/>
<path d="M23.6584 9.39586C23.599 11.3845 22.8357 13.0822 21.2722 14.3971C20.7705 14.8187 20.1338 14.7817 19.7508 14.3291C19.3688 13.8765 19.4299 13.2363 19.9324 12.8181C22.2644 10.8794 22.0415 7.3255 19.6106 5.66301C19.0435 5.27579 18.4162 5.04001 17.7407 4.93073C17.0609 4.82058 16.6608 4.32235 16.7641 3.70365C16.8579 3.13917 17.4146 2.77346 18.0539 2.87414C19.485 3.10045 20.7275 3.71226 21.7455 4.74744C23.0001 6.0227 23.6145 7.5716 23.6584 9.39586Z" fill="#C0C0C0"/>
<path d="M25.005 22.4427L26.9944 24.3135C26.8783 24.8788 26.6571 25.4218 26.3275 25.9312L24.7666 24.464C25.0454 23.8367 25.0747 23.1466 25.005 22.4427Z" fill="#C0C0C0"/>
<path d="M27.0323 21.8189L21.6826 16.7893C21.9279 16.6533 22.2376 16.6189 22.5681 16.7075C24.9818 17.3572 26.7208 19.388 27.0323 21.8189Z" fill="#C0C0C0"/>
<path d="M30.1851 28.0911L29.8401 28.4585C29.5957 28.6659 29.23 28.6616 28.9916 28.4361L26.3275 25.9312L24.7666 24.4641L19.2052 19.234L19.2043 19.2331L17.1959 17.3452L14.2108 14.5382L12.6662 13.0865L6.34069 7.13878L4.79782 5.68797L0.201034 1.36569C-0.055395 1.12389 -0.068304 0.721179 0.172636 0.464751L0.421321 0.200577C0.662261 -0.055852 1.06583 -0.0678996 1.32226 0.17304L5.88033 4.45919L7.40169 5.8902L13.8477 11.9507L15.3725 13.3843L25.0049 22.4419V22.4428L26.9944 24.3135L30.112 27.2443C30.3512 27.4689 30.3787 27.8346 30.1851 28.0911Z" fill="white"/>
<path d="M30.1851 28.0911C30.1722 28.11 30.1567 28.1281 30.1404 28.1453L29.8925 28.4086C29.8762 28.4267 29.8581 28.443 29.8401 28.4585C29.5957 28.6659 29.23 28.6616 28.9916 28.4361L26.3275 25.9312L24.7666 24.4641L19.2052 19.234L19.2043 19.2331L17.1959 17.3452L14.2108 14.5382L12.6662 13.0865L6.34069 7.13878L4.79782 5.68797L0.201034 1.36569C-0.055395 1.12389 -0.068304 0.721179 0.172636 0.464751L0.421321 0.200577C0.662261 -0.055852 1.06583 -0.0678996 1.32226 0.17304L5.88033 4.45919L7.40169 5.8902L13.8477 11.9507L15.3725 13.3843L25.0049 22.4419V22.4428L26.9944 24.3135L30.112 27.2443C30.3512 27.4689 30.3787 27.8346 30.1851 28.0911Z" fill="#C0C0C0"/>
</svg>
