<svg width="14" height="7" viewBox="0 0 14 7" fill="none" xmlns="http://www.w3.org/2000/svg">
<path d="M0 3.37018C0.480712 2.78264 1.06437 2.30711 1.66841 1.85683C2.40874 1.30457 3.20572 0.848462 4.06777 0.511478C5.0007 0.146654 5.96504 -0.0443359 6.9692 0.00875292C7.93483 0.0598994 8.84834 0.326638 9.71848 0.735163C10.9988 1.3363 12.1204 2.16306 13.1045 3.17757C13.313 3.39252 13.3133 3.60746 13.1045 3.82143C11.9754 4.9787 10.6825 5.89869 9.174 6.49562C8.25175 6.86044 7.29226 7.04431 6.29685 6.9909C5.32668 6.93911 4.40993 6.6714 3.53558 6.26061C2.26339 5.66271 1.14885 4.84113 0.169301 3.83471C0.107796 3.77126 0.0566498 3.69778 0.000647562 3.62915C1.38319e-07 3.54272 0 3.45629 0 3.37018ZM6.5338 0.785339C4.96801 0.854937 3.86253 2.15852 3.91659 3.58869C3.97648 5.16419 5.29399 6.26967 6.72512 6.21205C8.29124 6.14925 9.39639 4.84048 9.34233 3.41C9.28277 1.83481 7.96558 0.735164 6.5338 0.785339Z" fill="#8D8D8D"/>
<path d="M7.5 1.77623C6.98044 2.20029 6.93965 2.77877 7.11737 3.18049C7.23779 3.45273 7.43008 3.65246 7.69714 3.77742C7.96388 3.90237 8.24357 3.90949 8.52876 3.83018C8.46401 4.42031 7.9587 5.21567 7.00116 5.4099C6.17246 5.5779 5.30717 5.15999 4.91354 4.41027C4.51408 3.64987 4.6523 2.72762 5.25635 2.12454C5.8523 1.52891 6.75546 1.38648 7.5 1.77623Z" fill="#8D8D8D"/>
</svg>
