<svg width="19" height="17" viewBox="0 0 19 17" fill="none" xmlns="http://www.w3.org/2000/svg">
<path d="M17.48 3.09091H2.28C2.07844 3.09091 1.88513 3.0095 1.7426 2.86458C1.60007 2.71967 1.52 2.52312 1.52 2.31818C1.52 2.11324 1.60007 1.9167 1.7426 1.77178C1.88513 1.62687 2.07844 1.54545 2.28 1.54545H15.2C15.4016 1.54545 15.5949 1.46404 15.7374 1.31913C15.8799 1.17421 15.96 0.977667 15.96 0.772727C15.96 0.567787 15.8799 0.371241 15.7374 0.226327C15.5949 0.0814123 15.4016 0 15.2 0H2.28C1.67608 0.00254263 1.0976 0.247595 0.67056 0.681789C0.243517 1.11598 0.00250075 1.70414 0 2.31818V14.6818C0.00250075 15.2959 0.243517 15.884 0.67056 16.3182C1.0976 16.7524 1.67608 16.9975 2.28 17H17.48C17.8831 17 18.2697 16.8372 18.5548 16.5473C18.8399 16.2575 19 15.8644 19 15.4545V4.63636C19 4.22648 18.8399 3.83339 18.5548 3.54356C18.2697 3.25373 17.8831 3.09091 17.48 3.09091ZM17.48 15.4545H2.28C2.07844 15.4545 1.88513 15.3731 1.7426 15.2282C1.60007 15.0833 1.52 14.8868 1.52 14.6818V4.50114C1.76374 4.59053 2.02088 4.63628 2.28 4.63636H17.48V15.4545ZM12.92 10.0455C12.92 9.81621 12.9869 9.59211 13.1121 9.4015C13.2374 9.21089 13.4154 9.06232 13.6237 8.97459C13.832 8.88687 14.0613 8.86391 14.2824 8.90864C14.5035 8.95336 14.7067 9.06375 14.8661 9.22585C15.0255 9.38796 15.1341 9.59449 15.1781 9.81933C15.2221 10.0442 15.1995 10.2772 15.1132 10.489C15.0269 10.7008 14.8808 10.8818 14.6933 11.0092C14.5059 11.1366 14.2855 11.2045 14.06 11.2045C13.7577 11.2045 13.4677 11.0824 13.2539 10.8651C13.0401 10.6477 12.92 10.3529 12.92 10.0455Z" fill="currentColor"/>
</svg>
