<svg width="17" height="16" viewBox="0 0 17 16" fill="none" xmlns="http://www.w3.org/2000/svg">
<path d="M4.32214 6.92318C4.33415 6.91938 4.34718 6.91148 4.34872 6.89897C4.65053 4.44082 5.88775 2.82174 8.06037 2.0296C8.50114 1.86889 8.70303 1.30603 8.85139 0.86095C8.92206 0.631265 9.06341 0.454584 9.25776 0.330907C9.64646 0.0658861 10.1765 0.0835585 10.5299 0.401584C11.097 0.902036 11.4669 1.92511 12.1539 2.24159C13.7252 2.9654 14.7238 4.19278 15.1672 5.92947C15.3133 6.50186 15.933 6.93612 16.0953 7.50414C16.2366 7.98118 15.8833 8.45823 15.3886 8.49356C15.2826 8.49356 15.2472 8.5289 15.2119 8.61724C15.0882 9.02361 14.9469 9.4123 14.8055 9.81867C14.7525 9.99535 14.6465 10.066 14.4698 10.0484C11.3779 10.0484 8.30368 10.0484 5.21177 10.0484C4.99975 10.0484 4.94674 9.99534 4.87607 9.80099C4.73473 9.39463 4.61105 9.00593 4.46971 8.59957C4.45204 8.51122 4.41671 8.49356 4.32837 8.49356C3.90433 8.47589 3.5863 8.1402 3.5863 7.73384C3.5863 7.3172 3.85921 6.98585 4.28772 6.9409C4.30063 6.93954 4.30976 6.92709 4.32214 6.92318ZM11.6408 6.9211C13.3473 6.9211 14.7444 5.3725 13.667 4.04908C12.7544 2.92817 11.3431 2.18778 9.68179 2.23906C8.08 2.28819 6.80069 3.04787 5.97154 4.09248C4.92394 5.41229 6.29924 6.9211 7.98427 6.9211C9.2031 6.9211 10.4219 6.9211 11.6408 6.9211ZM14.3798 9.41728C14.5321 8.96057 14.1914 8.49356 13.71 8.49356C11.1072 8.49356 8.5135 8.49356 5.91052 8.49356C5.46593 8.49356 5.14983 8.93493 5.28244 9.35929C5.31778 9.48297 5.38845 9.53597 5.51212 9.53597C8.39202 9.53597 11.2896 9.53597 14.1695 9.53597C14.2292 9.53597 14.2919 9.52945 14.3394 9.49317C14.3602 9.4772 14.368 9.45279 14.3763 9.42784C14.3775 9.42432 14.3787 9.4208 14.3798 9.41728ZM9.82313 7.96352C11.6253 7.96352 13.4451 7.96352 15.2472 7.96352C15.4416 7.96352 15.5829 7.85751 15.5829 7.6985C15.5829 7.53948 15.4593 7.43348 15.2649 7.43348C11.6606 7.43348 8.05633 7.43348 4.45204 7.43348C4.24002 7.43348 4.11635 7.53948 4.11635 7.6985C4.11635 7.85751 4.24002 7.96352 4.43437 7.96352C4.46971 7.96352 4.50504 7.96352 4.54038 7.96352C6.30719 7.96352 8.05633 7.96352 9.82313 7.96352ZM9.8408 1.70902C10.1235 1.70902 10.3532 1.46166 10.3532 1.17897C10.3532 0.896284 10.1058 0.666605 9.82313 0.666605C9.54044 0.666605 9.31076 0.913958 9.31076 1.19665C9.32843 1.46167 9.55811 1.70902 9.8408 1.70902Z" fill="white"/>
<path d="M5.38434 11.0873C5.41739 11.1745 5.49326 11.2456 5.58393 11.2238C5.87236 11.1546 6.14862 11.0934 6.41269 11.0201C6.94273 10.8611 7.4551 10.8611 7.98515 11.0201C9.15124 11.3558 10.3173 11.6561 11.4834 11.9565C11.9375 12.0776 12.4584 12.2263 12.8615 11.9847C12.8969 11.9635 12.9322 11.9423 12.9675 11.9211C13.5329 11.5854 14.0983 11.2674 14.6813 10.9317C15.3704 10.543 16.1831 10.9494 16.2538 11.7445C16.3068 12.2038 16.0948 12.5395 15.6884 12.7692C14.911 13.2109 14.1336 13.6703 13.3562 14.112C12.7025 14.483 12.0665 14.854 11.4128 15.2427C11.0947 15.4371 10.759 15.5254 10.3703 15.5254C9.15124 15.5254 7.91448 15.5254 6.69538 15.5254C6.28901 15.5254 5.91798 15.4548 5.56462 15.2604C5.47937 15.2036 5.37027 15.2835 5.37027 15.386C5.37027 15.4347 5.37027 15.4816 5.37027 15.5254C5.37027 15.6844 5.26426 15.7905 5.10525 15.7905C4.4162 15.7905 3.72714 15.7905 3.03808 15.7905C2.8614 15.7905 2.77306 15.6844 2.77306 15.5078C2.77306 15.4903 2.77306 15.4728 2.77306 15.4548C2.77306 15.3474 2.68605 15.2604 2.57871 15.2604C2.04867 15.2604 1.51863 15.2604 0.988587 15.2604C0.77657 15.2604 0.688232 15.1721 0.688232 14.9601C0.688232 13.7586 0.688232 12.5749 0.688232 11.3734C0.688232 11.1791 0.776574 11.0907 0.970923 11.0907C1.50097 11.0907 2.03101 11.0907 2.56105 11.0907C2.66838 11.0907 2.75539 11.0037 2.75539 10.8964C2.75539 10.8728 2.75539 10.8493 2.75539 10.8257C2.75539 10.6667 2.8614 10.5784 3.02042 10.5784C3.70947 10.5784 4.4162 10.5784 5.10525 10.5784C5.26426 10.5784 5.3526 10.6844 5.37027 10.8434C5.37027 10.9028 5.37027 10.9622 5.37027 11.0216C5.37027 11.0438 5.37645 11.0665 5.38434 11.0873ZM5.5606 11.7796C5.47004 11.8007 5.40561 11.8812 5.40561 11.9742C5.40561 12.7692 5.40561 13.5466 5.40561 14.3417C5.40561 14.5183 5.45861 14.6244 5.61762 14.695C5.93565 14.8364 6.23601 15.0131 6.60704 15.0131C7.87914 15.0131 9.15124 15.0131 10.4233 14.9954C10.653 14.9954 10.9004 14.9424 11.0947 14.8364C12.5612 14.006 14.0276 13.1579 15.4764 12.3098C15.7414 12.1508 15.8298 11.8505 15.6708 11.6031C15.5294 11.3558 15.2114 11.2674 14.9464 11.4264C14.116 11.9035 13.2679 12.3805 12.4375 12.8752C12.3845 12.9106 12.3492 12.9812 12.3492 13.0342C12.3138 13.7056 11.7131 14.1827 11.0417 14.006C10.017 13.741 8.99223 13.4583 7.96748 13.1756C7.77313 13.1226 7.70246 12.9989 7.73779 12.8576C7.77313 12.6985 7.91448 12.6279 8.10882 12.6809C8.35618 12.7515 8.60353 12.8045 8.85088 12.8752C9.62828 13.0872 10.388 13.2816 11.1654 13.4936C11.4658 13.5643 11.7308 13.4229 11.8191 13.1226C11.8898 12.8576 11.7308 12.5749 11.4481 12.4865C11.3951 12.4689 11.3598 12.4688 11.3067 12.4512C10.1937 12.1508 9.08057 11.8505 7.96748 11.5501C7.66712 11.4618 7.3491 11.3381 7.03107 11.4088C6.53517 11.5367 6.05376 11.6647 5.5606 11.7796ZM3.32077 14.4918C3.32077 14.9163 3.67812 15.2604 4.10259 15.2604C4.52705 15.2604 4.8579 14.9163 4.8579 14.4918C4.8579 13.616 4.8579 12.7458 4.8579 11.877C4.8579 11.4525 4.50718 11.1084 4.08271 11.1084C3.65825 11.1084 3.32077 11.4525 3.32077 11.877C3.32077 12.7458 3.32077 13.616 3.32077 14.4918ZM2.79073 12.3894C2.79073 11.9649 2.43338 11.6208 2.00892 11.6208C1.58445 11.6208 1.25361 11.9649 1.25361 12.3894C1.25361 12.9154 1.25361 13.4403 1.25361 13.9618C1.25361 14.3863 1.60433 14.7304 2.0288 14.7304C2.45326 14.7304 2.79073 14.3863 2.79073 13.9618C2.79073 13.4403 2.79073 12.9154 2.79073 12.3894Z" fill="white"/>
<path d="M11.2088 3.15722C11.2942 3.06529 11.4357 3.04759 11.5548 3.08727C12.8622 3.67031 13.728 4.64206 14.1167 6.02017C14.1697 6.19686 14.099 6.3382 13.94 6.3912C13.781 6.42654 13.6573 6.35587 13.6043 6.16152C13.3039 5.13677 12.7032 4.3417 11.7845 3.79399C11.6255 3.70565 11.4488 3.63498 11.2898 3.54664C11.1661 3.47597 11.0954 3.36996 11.1484 3.24628C11.1611 3.21459 11.1829 3.18518 11.2088 3.15722Z" fill="white"/>
<path d="M10.3003 3.2992C10.1413 3.28153 9.98229 3.28153 9.82328 3.26386C9.66427 3.2462 9.57593 3.14019 9.57593 2.99884C9.57593 2.8575 9.68194 2.7515 9.84095 2.7515C9.99996 2.7515 10.159 2.76917 10.318 2.78683C10.53 2.8045 10.6183 2.91051 10.6007 3.06952C10.6007 3.22853 10.4947 3.2992 10.3003 3.2992Z" fill="white"/>
<path d="M3.83179 14.6065C3.83179 14.5888 3.83179 14.5712 3.83179 14.5358C3.83179 14.3238 3.92013 14.2178 4.09681 14.2178C4.27349 14.2178 4.36183 14.3238 4.36183 14.5358C4.36183 14.5888 4.36183 14.6595 4.36183 14.7125C4.36183 14.8892 4.25582 14.9952 4.09681 14.9952C3.97334 14.9952 3.89249 14.9313 3.8625 14.82C3.84393 14.7511 3.83179 14.6779 3.83179 14.6065Z" fill="white"/>
</svg>
