<svg width="18" height="17" viewBox="0 0 18 17" fill="none" xmlns="http://www.w3.org/2000/svg">
<path d="M15.2177 6.51478C15.2578 6.27402 15.2979 6.09345 15.338 5.91288C15.4384 5.55174 15.5587 5.21066 15.8196 4.92977C15.96 4.78933 16.1406 4.66894 16.3412 4.58869C16.5418 4.50844 16.6823 4.58869 16.7625 4.80939C17.1237 5.7925 17.3845 6.81574 17.5651 7.85904C17.6654 8.54119 17.7657 9.22335 17.6654 9.90551C17.6052 10.387 17.4848 10.8686 17.3644 11.3501C17.0836 12.4937 17.0836 13.5972 17.4648 14.7207C17.4648 14.7408 17.4848 14.7609 17.4848 14.7809C17.525 14.9214 17.4848 15.0418 17.3444 15.1019C17.2039 15.1421 17.1036 15.0618 17.0635 14.9214C16.9632 14.5201 16.8227 14.0988 16.7625 13.6774C16.602 12.7545 16.7425 11.8316 17.0033 10.9488C17.3444 9.82525 17.3043 8.7017 17.0635 7.57815C16.903 6.79567 16.6622 6.0132 16.4616 5.25079C16.4415 5.17053 16.4014 5.11034 16.3613 5.01002C16.2409 5.15047 16.1406 5.25079 16.0603 5.37117C15.6791 5.99314 15.6189 6.67529 15.7794 7.35745C15.8396 7.59821 15.7794 7.73866 15.5989 7.8791C14.8164 8.52113 14.4151 9.3638 14.3148 10.367C14.2947 10.5275 14.2947 10.708 14.2947 10.8686C14.2947 11.0291 14.2546 11.1494 14.074 11.1494C13.9336 11.1695 13.8333 11.0491 13.8333 10.8686C13.8132 9.66475 14.1944 8.60138 15.0572 7.73865C15.1173 7.67846 15.1775 7.61827 15.1374 7.49789C14.4954 5.93294 13.8734 4.34793 13.2314 2.80304C13.0508 2.38171 12.79 1.98044 12.5492 1.57917C12.469 1.45879 12.3486 1.35848 12.2282 1.25816C12.1078 1.17791 12.0075 1.21803 11.9674 1.35848C11.8871 1.65943 11.8671 1.96038 11.9874 2.26133C12.168 2.70273 12.3285 3.16419 12.5091 3.62565C12.5292 3.68584 12.5893 3.76609 12.6495 3.80622C13.5323 4.26768 13.9737 5.05015 14.0941 6.0132C14.2546 7.19694 13.9336 8.30043 13.432 9.3638C12.9505 10.4272 12.168 11.2498 11.3253 12.0122C11.0043 12.2931 10.6633 12.5739 10.3222 12.8548C10.5429 13.1959 10.7836 13.5169 11.0043 13.858C11.4859 14.6004 11.8871 15.4029 12.148 16.2456C12.148 16.2656 12.168 16.2857 12.168 16.3258C12.2282 16.5064 12.1881 16.6268 12.0476 16.6669C11.9072 16.707 11.8069 16.6268 11.7467 16.4462C11.6062 16.085 11.4859 15.7038 11.3253 15.3427C10.9642 14.5402 10.4827 13.8379 9.96103 13.1157C9.27888 13.5571 8.59672 13.5571 7.8945 13.0956C7.53335 13.6774 7.13209 14.2392 6.81107 14.8211C6.53018 15.3226 6.34961 15.8844 6.12891 16.4061C6.12891 16.4261 6.10885 16.4462 6.10885 16.4663C6.06872 16.6067 5.9684 16.687 5.8079 16.6468C5.66745 16.5866 5.62732 16.4663 5.66745 16.3258C5.84802 15.8644 5.98847 15.3828 6.22923 14.9414C6.61044 14.2191 7.07189 13.5169 7.49323 12.7946C7.35278 12.6743 7.17221 12.5338 6.99164 12.3934C6.12891 11.6711 5.30631 10.8886 4.72447 9.90551C4.16269 8.94246 3.80155 7.89916 3.74136 6.77561C3.70124 6.03326 3.82162 5.31098 4.24295 4.66895C4.48371 4.30781 4.80472 4.02691 5.16586 3.80622C5.24612 3.76609 5.30631 3.68584 5.34644 3.60558C5.54707 3.12406 5.72764 2.64254 5.90821 2.16102C6.00853 1.88013 5.9684 1.59924 5.86808 1.31835C5.82796 1.19797 5.70758 1.19797 5.62733 1.25816C5.50695 1.35848 5.34644 1.45879 5.28625 1.59924C4.96523 2.16101 4.62415 2.72279 4.36333 3.32469C3.78149 4.68901 3.25984 6.09345 2.71813 7.47783C2.678 7.57815 2.69806 7.63834 2.77831 7.71859C3.64104 8.58132 4.02225 9.62462 4.02225 10.8485C4.02225 11.0491 3.942 11.1494 3.80155 11.1494C3.66111 11.1494 3.56079 11.0291 3.56079 10.8284C3.58085 9.72494 3.21971 8.78195 2.41717 7.99948C2.33692 7.91922 2.25666 7.83897 2.15635 7.77878C2.0159 7.69853 1.99584 7.57815 2.03597 7.41764C2.19648 6.77561 2.19648 6.15364 1.89552 5.55174C1.79521 5.3511 1.6347 5.17053 1.51432 4.9699C1.49426 4.9699 1.47419 4.98996 1.43407 4.98996C1.31369 5.39123 1.15317 5.7925 1.07292 6.21383C0.892349 6.99631 0.731844 7.79884 0.611463 8.60138C0.471019 9.44405 0.651588 10.2667 0.872286 11.0893C1.21336 12.3332 1.23343 13.5972 0.771968 14.8411C0.711778 15.0217 0.591397 15.1019 0.471017 15.0618C0.330572 15.0217 0.290444 14.8812 0.350635 14.7007C0.370698 14.6405 0.390765 14.6004 0.410829 14.5402C0.491082 14.179 0.591396 13.8379 0.651586 13.4768C0.771967 12.6943 0.651586 11.9319 0.450952 11.1695C0.21019 10.3068 0.0697487 9.44405 0.190129 8.56126C0.31051 7.51796 0.531211 6.51478 0.832162 5.51161C0.912416 5.25078 1.01273 4.98996 1.09298 4.7492C1.15318 4.56863 1.27355 4.50844 1.47419 4.5285C1.69489 4.56863 1.87546 4.68901 2.01591 4.86958C2.35698 5.29092 2.51749 5.77243 2.59774 6.29408C2.59774 6.33421 2.59775 6.37434 2.61781 6.3944C2.61781 6.3944 2.63787 6.41447 2.65793 6.43453C2.678 6.37434 2.69806 6.31415 2.73819 6.27402C3.29997 4.90971 3.86174 3.54539 4.44358 2.20114C4.60409 1.81993 4.86491 1.47886 5.10568 1.13778C5.20599 0.997335 5.3665 0.876952 5.52701 0.796698C5.84802 0.636191 6.16904 0.756571 6.32955 1.09765C6.36967 1.15784 6.38974 1.2381 6.42987 1.33841C6.49006 1.25816 6.53018 1.19797 6.59037 1.15784C6.95151 0.836829 7.41297 0.897015 7.69386 1.29828C7.85437 1.55911 7.87443 1.86006 7.87443 2.16102C7.87443 2.2814 7.87443 2.40178 7.87443 2.54222C8.11519 2.46197 8.33589 2.52215 8.51646 2.68266C8.69703 2.84317 8.75722 3.06387 8.79735 3.28457C8.81741 3.44507 8.83748 3.60559 8.83748 3.76609C8.83748 3.90654 8.85754 4.02692 9.01805 4.06704C9.13843 4.02692 9.17856 3.94666 9.17856 3.80622C9.17856 3.56545 9.19862 3.32469 9.25881 3.08393C9.3792 2.62247 9.66008 2.4419 10.1416 2.50209C10.1416 2.26133 10.1215 2.00051 10.1416 1.75975C10.1617 1.47886 10.262 1.2381 10.5027 1.05753C10.7836 0.856892 11.0846 0.856887 11.3454 1.07759C11.4257 1.13778 11.4859 1.19797 11.5661 1.27822C11.5862 1.21803 11.6062 1.15784 11.6263 1.09765C11.7868 0.716444 12.168 0.555937 12.489 0.796698C12.7298 0.957206 12.9304 1.17791 13.111 1.41867C13.6326 2.18108 13.9737 3.0438 14.3148 3.88647C14.5556 4.80939 14.8565 5.63199 15.2177 6.51478ZM6.73082 3.90653C6.6305 3.90653 6.44993 3.9266 6.28942 3.94666C5.06555 4.10717 4.24295 5.01003 4.18276 6.25396C4.12257 7.81891 4.64422 9.18322 5.5872 10.4071C6.32955 11.3701 7.25247 12.1125 8.23558 12.8147C8.65691 13.1157 9.21869 13.0956 9.66008 12.7746C10.1416 12.4134 10.6231 12.0322 11.0645 11.651C11.847 10.9689 12.5292 10.2065 12.9706 9.26348C13.432 8.28037 13.753 7.25713 13.6126 6.15364C13.5323 5.47149 13.2916 4.88965 12.7298 4.46831C11.7467 3.7059 10.0413 3.76609 9.0983 4.58869C8.95786 4.70907 8.83748 4.72914 8.7171 4.60875C8.19545 4.10717 7.53336 3.9266 6.73082 3.90653ZM5.84803 3.56546C5.88815 3.56546 5.90822 3.56546 5.92828 3.56546C6.28942 3.52533 6.65056 3.50527 7.0117 3.46514C7.0719 3.46514 7.13209 3.38489 7.15215 3.34476C7.21234 3.02374 7.29259 2.68267 7.33272 2.34159C7.35278 2.14095 7.33272 1.90019 7.27253 1.69955C7.19227 1.41867 6.95152 1.37854 6.75088 1.57917C6.71076 1.63936 6.65056 1.69956 6.61044 1.75975C6.26936 2.32152 6.06872 2.94349 5.84803 3.56546ZM11.9473 3.52533C11.8269 3.20431 11.7266 2.8833 11.5661 2.56229C11.4257 2.24127 11.2451 1.92025 11.0445 1.6193C10.9843 1.53905 10.8438 1.43873 10.7636 1.4588C10.6633 1.49892 10.583 1.6193 10.5027 1.71962C10.4626 1.75975 10.4626 1.81993 10.4626 1.88012C10.4225 2.38171 10.5027 2.86324 10.6432 3.34476C10.6633 3.38489 10.7234 3.44508 10.7636 3.44508C11.1448 3.50527 11.546 3.50527 11.9473 3.52533ZM10.2419 3.52533C10.1416 3.38488 10.0614 3.24444 9.96103 3.104C9.82059 2.94349 9.70021 2.96355 9.61995 3.16419C9.55976 3.34476 9.5397 3.54539 9.47951 3.76609C9.7604 3.68584 9.9811 3.60558 10.2419 3.52533ZM8.31583 3.76609C8.25564 3.54539 8.23557 3.34476 8.17538 3.16419C8.09513 2.96355 7.97475 2.96355 7.83431 3.12406C7.73399 3.24444 7.65374 3.38488 7.55342 3.52533C7.81425 3.60558 8.03494 3.66578 8.31583 3.76609Z" fill="white"/>
</svg>
