<svg width="19" height="18" viewBox="0 0 19 18" fill="none" xmlns="http://www.w3.org/2000/svg">
<path d="M0.181249 14.8568C0.187586 14.7939 0.205612 14.7538 0.245114 14.7044C0.300476 14.6352 0.355839 14.566 0.411201 14.4968C1.14931 13.7398 1.88741 12.9827 2.66337 12.2636C2.98511 11.9607 3.38255 11.7147 3.76106 11.4687C3.85569 11.4119 3.89354 11.3551 3.89354 11.2605C3.93139 9.80321 5.08587 8.45948 6.54315 8.19452C6.78919 8.15667 7.01629 8.09989 7.26233 8.06204C7.60269 7.97695 7.53102 7.55861 7.23915 7.36393C6.69261 6.99939 6.27977 6.50798 5.99438 5.88971C5.95651 5.80767 5.84395 5.78294 5.79252 5.85722C5.78822 5.86344 5.78345 5.86943 5.77818 5.87484C5.26866 6.39891 4.64685 6.62339 3.93139 6.5669C3.70927 6.54839 3.57767 6.38505 3.5897 6.1654C3.59024 6.15552 3.59194 6.14571 3.59433 6.13611C3.59754 6.12321 3.60071 6.11027 3.60376 6.0972C3.62622 6.00086 3.53348 5.93708 3.43468 5.94198C3.42318 5.94255 3.4147 5.94376 3.40341 5.94599C3.1657 5.99292 2.98467 5.86052 2.96618 5.60169C2.8337 4.37151 3.85569 3.17919 5.08587 3.14134C5.44518 3.14134 5.74272 2.87597 5.85164 2.53357C6.08072 1.81337 6.5165 1.1994 7.18663 0.737762C7.81118 0.302469 8.51143 0.113216 9.26846 0.151068C10.1012 0.188919 10.8393 0.49173 11.4449 1.07843C11.7597 1.36457 12.0023 1.68917 12.1801 2.04738C12.4764 2.64409 13.0872 3.05374 13.716 3.27382C14.7002 3.59556 15.3436 4.56077 15.2679 5.60169C15.249 5.88557 15.0597 6.01805 14.7948 5.96127C14.7118 5.9336 14.6372 6.02542 14.6428 6.11275C14.6429 6.11484 14.643 6.1169 14.6431 6.11895C14.6435 6.12736 14.6443 6.13585 14.6459 6.14412C14.6953 6.40192 14.5446 6.5672 14.2838 6.58583C13.5486 6.62353 12.926 6.37957 12.4162 5.83524C12.4122 5.831 12.4088 5.82587 12.4058 5.8209C12.3806 5.77946 12.3018 5.79047 12.2774 5.83239C11.7365 6.76278 11.5517 7.03047 10.9945 7.37996C10.6689 7.58413 10.592 8.04146 10.9718 8.09989C11.3124 8.17559 11.672 8.23237 12.0127 8.327C13.3943 8.74336 14.3216 10.0303 14.3216 11.4687C14.3216 11.5595 14.4297 11.6032 14.4912 11.5364C14.5485 11.4742 14.6028 11.4146 14.6623 11.3551C15.0219 10.9577 15.3815 10.5602 15.7411 10.1817C16.1196 9.78428 16.7252 9.67073 17.2173 9.89784C17.7283 10.1249 18.05 10.6359 18.0311 11.1848C18.0122 11.5633 17.8608 11.8661 17.5958 12.1311C16.9523 12.8124 16.3088 13.5127 15.6654 14.194C15.0408 14.8942 14.3406 15.4999 13.4889 15.8973C13.0536 16.1055 12.5994 16.2569 12.1452 16.4083C11.8991 16.484 11.7099 16.3894 11.6531 16.2001C11.5963 15.9919 11.7099 15.8027 11.9559 15.7459C13.1861 15.4242 14.1892 14.7807 15.0408 13.8533C15.7221 13.0963 16.4413 12.3582 17.1416 11.6012C17.3119 11.4119 17.3876 11.1848 17.293 10.9388C17.2173 10.7116 17.0469 10.5602 16.8009 10.5224C16.5549 10.4845 16.3467 10.5792 16.1764 10.7495C15.5518 11.4308 14.9462 12.1121 14.3216 12.7556C13.2239 13.8722 11.8991 14.44 10.3283 14.4779C9.41987 14.4968 8.4925 14.4779 7.58407 14.4779C7.33803 14.4779 7.18663 14.3454 7.18663 14.1372C7.18663 13.929 7.35696 13.7776 7.58407 13.7776C8.43573 13.7776 9.26846 13.7776 10.1201 13.7776C10.5176 13.7776 10.8014 13.5316 10.8014 13.172C10.8014 12.8124 10.5176 12.5664 10.1201 12.5664C9.40094 12.5664 8.68176 12.5664 7.96258 12.5664C7.84903 12.5664 7.71655 12.5096 7.64084 12.4339C6.90274 11.7336 6.03216 11.5822 5.08587 11.7715C4.29098 11.9229 3.62858 12.3014 3.06081 12.8692C2.3227 13.6073 1.5846 14.3454 0.846493 15.0835C0.59839 15.3316 0.408109 15.334 0.225116 15.1159C0.170743 15.051 0.17277 14.941 0.181249 14.8568ZM11.4828 12.7746C11.568 13.1722 11.884 13.4803 12.258 13.3204C12.7502 13.1099 13.2028 12.8144 13.6214 12.4339C13.6592 12.396 13.6782 12.3393 13.6782 12.2825C13.6782 11.9797 13.6971 11.6579 13.6782 11.3551C13.6403 10.4467 13.2429 9.7275 12.4858 9.21651C12.0505 8.9137 11.5396 8.83799 11.0475 8.74337C10.8393 8.70551 10.7257 8.72444 10.5743 8.89477C9.76053 9.78428 8.36002 9.7275 7.60299 8.80014C7.54621 8.72444 7.48944 8.70551 7.39481 8.72444C7.20555 8.78122 7.01629 8.80014 6.80811 8.83799C5.82397 9.02725 5.12372 9.5761 4.7452 10.5224C4.69327 10.6522 4.65915 10.7821 4.62451 10.918C4.60211 11.0059 4.68074 11.0755 4.77135 11.0715C4.781 11.0711 4.78786 11.0701 4.79726 11.0678C5.96516 10.7886 7.03912 10.942 8.00043 11.7526C8.05721 11.7904 8.15184 11.8093 8.22754 11.8093C8.90887 11.8093 9.5902 11.8093 10.2715 11.8093C10.8393 11.8093 11.3692 12.2257 11.4828 12.7746ZM7.82581 3.70407C7.02783 4.01361 6.27621 4.66264 6.57641 5.46417C6.7653 5.96851 7.10917 6.39982 7.64084 6.73723C8.62498 7.38071 9.64697 7.38071 10.6311 6.73723C11.1583 6.40264 11.5009 5.97028 11.6908 5.46634C11.9918 4.66743 11.2123 3.99431 10.4305 3.65142C9.63125 3.30091 8.71994 3.32232 7.91797 3.66645C7.88763 3.67947 7.85695 3.69199 7.82581 3.70407ZM7.42056 1.40768C6.49501 2.13848 7.58786 3.24191 8.48207 2.47307C9.31369 1.75804 8.52927 0.664871 7.61348 1.26837C7.54764 1.31176 7.48322 1.35821 7.42056 1.40768ZM10.9042 1.46513C10.5745 1.18239 10.104 1.36105 9.91688 1.75298C9.75901 2.08358 9.82508 2.48891 10.1289 2.69367C10.227 2.75978 10.3278 2.82094 10.4313 2.87709C11.1231 3.25246 11.8073 2.57122 11.3411 1.93703C11.2135 1.76356 11.0661 1.60404 10.9042 1.46513ZM13.9053 5.10961C14.1473 4.81916 14.5334 4.74715 14.3071 4.44424C13.9749 3.99945 13.3822 3.71682 12.8265 3.82267C12.6751 3.84159 12.6183 3.91729 12.5994 4.04977C12.4863 4.84176 13.0119 5.61496 13.7833 5.78906C13.7889 5.79032 13.7959 5.79094 13.8016 5.79094C13.848 5.79094 13.8833 5.75134 13.8738 5.70594C13.8291 5.49238 13.7046 5.29361 13.9053 5.10961ZM3.78007 4.7697C3.71685 4.92252 3.86913 5.06728 4.02602 5.01499C4.32883 4.93928 4.53702 5.16639 4.48024 5.4692C4.47042 5.5281 4.45552 5.5819 4.43816 5.63854C4.41482 5.7147 4.48269 5.77609 4.56226 5.77232C4.57175 5.77187 4.57956 5.77072 4.58868 5.76805C5.31886 5.55437 5.78541 4.80207 5.67256 4.04977C5.65364 3.97407 5.67256 3.86052 5.54008 3.84159C4.8212 3.67821 4.06001 4.0931 3.78007 4.7697ZM9.69194 8.69438C9.95275 8.56608 9.95748 8.21475 9.77351 7.98972C9.74125 7.95026 9.71147 7.90092 9.66369 7.88318C9.645 7.87625 9.62533 7.87278 9.60912 7.87278C9.28739 7.87278 8.96565 7.87278 8.66284 7.87278C8.63645 7.87278 8.60087 7.88197 8.56892 7.90036C8.54093 7.91647 8.52115 7.94198 8.50146 7.96758C8.31109 8.21508 8.30319 8.57522 8.58649 8.70651C8.93245 8.86684 9.34958 8.8628 9.69194 8.69438Z" fill="white"/>
<path d="M4.24193 17.9808C4.16639 17.9774 4.10485 17.9563 4.04955 17.9047C3.83976 17.7091 3.86592 17.5334 4.10145 17.2978C4.51782 16.8815 4.93419 16.4462 5.36948 16.0487C5.44518 15.973 5.57766 15.8973 5.69122 15.8973C6.75106 15.8784 7.8109 15.8973 8.88967 15.8973C9.09786 15.8973 9.23034 16.0298 9.24926 16.2001C9.26819 16.3705 9.17356 16.5408 9.00323 16.5787C8.94645 16.5976 8.87075 16.5976 8.81397 16.5976C7.86768 16.5976 6.92139 16.5976 5.9751 16.5976C5.96546 16.5976 5.95581 16.598 5.9462 16.5988C5.77913 16.6124 5.66762 16.7688 5.54777 16.886C5.23485 17.192 4.93311 17.5071 4.63137 17.8088C4.59511 17.8451 4.55884 17.877 4.52258 17.9067C4.44865 17.9671 4.33734 17.9849 4.24193 17.9808Z" fill="white"/>
<path d="M10.0999 16.238C10.0999 16.0488 10.2513 15.8974 10.4594 15.8974C10.6487 15.8974 10.8001 16.0488 10.8001 16.238C10.8001 16.4273 10.6487 16.5976 10.4405 16.5787C10.2513 16.5787 10.0999 16.4273 10.0999 16.238Z" fill="white"/>
<path d="M9.13554 6.22626C8.92735 6.22626 8.71917 6.15056 8.56777 5.99915C8.41636 5.86667 8.39743 5.65848 8.51099 5.50708C8.62454 5.35567 8.83273 5.31782 9.00306 5.4503C9.11661 5.52601 9.19231 5.52601 9.30587 5.4503C9.45728 5.33675 9.66546 5.35567 9.77901 5.50708C9.89257 5.65848 9.89257 5.84774 9.74116 5.99915C9.57083 6.15056 9.36265 6.22626 9.13554 6.22626Z" fill="white"/>
</svg>
