<svg width="20" height="14" viewBox="0 0 20 14" fill="none" xmlns="http://www.w3.org/2000/svg">
<path d="M19.2941 10.4272C19.2964 10.6099 19.2774 10.7939 19.2125 10.9646C18.889 11.8146 18.1415 12.2799 17.3478 12.6683C16.3092 13.1876 15.1964 13.4472 14.0651 13.6512C12.3402 13.9665 10.6154 14.0407 8.87196 13.9665C7.01728 13.8924 5.18115 13.6512 3.41921 13.0207C2.67733 12.761 1.95401 12.4272 1.36051 11.8893C0.748467 11.37 0.525906 10.7209 0.637187 9.92334C0.804108 8.7178 1.30487 7.69772 2.19512 6.86312C2.62169 6.47364 3.10391 6.15834 3.66031 5.95433C3.75877 5.9051 3.77688 5.78331 3.69297 5.71205C2.25144 4.48799 2.49724 2.50149 3.51194 1.54019C4.6433 0.464477 6.44233 0.501569 7.48095 1.61438C8.40251 2.58279 8.54795 4.14314 7.6625 5.27625C7.42452 5.5808 7.48562 6.02996 7.81479 6.23253C8.25076 6.46728 8.76503 6.4209 9.22945 6.24917C9.78173 6.04494 10.3926 6.07801 10.9334 6.36625C11.2068 6.51201 11.549 6.5527 11.8188 6.40027C12.2853 6.13669 12.307 5.46796 12.0285 5.01022C11.2969 3.80818 11.6739 2.29563 12.4886 1.54019C13.657 0.464477 15.419 0.520118 16.4762 1.65147C17.3329 2.56838 17.4953 4.04565 16.7264 5.15524C16.4678 5.52845 16.5319 6.07311 16.9213 6.30671C18.2566 7.14132 19.0356 8.32832 19.2396 9.88625C19.2396 9.96443 19.2802 10.0376 19.2844 10.1157C19.2901 10.2206 19.2928 10.325 19.2941 10.4272ZM7.88829 8.19432C7.88868 7.6589 7.78611 7.03382 7.31029 6.78831C6.1929 6.21176 5.00671 6.15744 3.77159 6.71475C2.39913 7.32679 1.62017 8.4396 1.37906 9.92334C1.26778 10.5539 1.43469 11.0547 1.95401 11.4256C2.13947 11.5555 2.34349 11.7038 2.5475 11.8151C3.49339 12.353 4.55056 12.6312 5.60773 12.8352C6.04184 12.922 6.44515 12.5744 6.55004 12.1443C6.64521 11.7541 6.80455 11.3886 7.03583 11.0361C7.08647 10.9614 7.13962 10.8891 7.19519 10.8194C7.72802 10.1504 7.88767 9.04958 7.88829 8.19432ZM12.9971 11.284C13.4712 12.1232 14.3001 12.8879 15.2329 12.6454C15.6766 12.5301 16.1152 12.3924 16.5503 12.2231C17.1253 11.982 17.6817 11.7224 18.1454 11.2773C18.3865 11.0361 18.5905 10.7579 18.5719 10.4056C18.5719 10.1644 18.5348 9.92334 18.4978 9.68223C18.0897 7.45662 15.8456 5.95433 13.6199 6.43654C13.2628 6.51591 12.9269 6.63242 12.6122 6.78891C12.1195 7.03391 12.0288 7.66019 12.0256 8.21041C12.0204 9.086 12.1664 10.1726 12.7107 10.8585C12.8172 10.9928 12.9127 11.1346 12.9971 11.284ZM14.436 5.60194C15.5674 5.60194 16.4947 4.69314 16.4947 3.56179C16.4947 2.43044 15.5859 1.50309 14.4546 1.50309C13.3047 1.50309 12.3959 2.41189 12.3959 3.54324C12.3959 4.69314 13.2861 5.60194 14.436 5.60194ZM5.45935 5.60194C6.59071 5.60194 7.4995 4.69314 7.4995 3.54324C7.4995 2.39334 6.59071 1.48455 5.44081 1.48455C4.30945 1.48455 3.40066 2.41189 3.40066 3.54324C3.41921 4.71169 4.328 5.60194 5.45935 5.60194ZM8.35662 10.7716C7.07082 11.6401 8.3482 13.2632 9.89984 13.2664C9.99226 13.2665 10.0846 13.2662 10.1769 13.2654C11.6345 13.2521 12.838 11.809 11.7035 10.8937C11.6178 10.8246 11.5271 10.7605 11.4314 10.7023C10.4484 10.0903 9.42837 10.0903 8.46393 10.7023C8.42735 10.7249 8.39158 10.748 8.35662 10.7716ZM11.2645 8.17994C11.2645 7.43807 10.6895 6.86312 9.94768 6.86312C9.2058 6.86312 8.63086 7.43807 8.61231 8.17994C8.61231 8.92181 9.18726 9.51531 9.91059 9.51531C10.671 9.51531 11.2645 8.94036 11.2645 8.17994Z" fill="white"/>
</svg>
