<svg width="9" height="9" viewBox="0 0 9 9" fill="none" xmlns="http://www.w3.org/2000/svg">
<path d="M4.03946 5.63156C4.05858 5.59444 4.04789 5.55563 4.04817 5.5185C4.04874 4.00375 4.04902 2.48901 4.04845 0.974256C4.04845 0.853324 4.05886 0.737173 4.13339 0.634239C4.24251 0.483777 4.43488 0.412061 4.61768 0.458184C4.79177 0.502057 4.9262 0.657301 4.94645 0.840387C4.95236 0.892698 4.95348 0.94557 4.95348 0.998162C4.95376 2.50251 4.95376 4.00657 4.95376 5.51091C4.95376 5.54916 4.95376 5.58713 4.95376 5.63522C4.9996 5.62284 5.02013 5.58938 5.04488 5.56435C5.49936 5.1093 5.95216 4.65257 6.4072 4.19809C6.64035 3.96523 6.97502 3.99504 7.13701 4.25884C7.23967 4.42617 7.2242 4.63738 7.09708 4.78785C7.07205 4.81738 7.04449 4.84466 7.01721 4.87194C6.30398 5.58516 5.59105 6.29838 4.87755 7.0116C4.61993 7.26921 4.38172 7.26837 4.12326 7.00991C3.4002 6.28685 2.67657 5.56378 1.95379 4.84016C1.79855 4.68463 1.75636 4.50127 1.83117 4.32212C1.95801 4.01838 2.33627 3.94666 2.58067 4.18459C2.80482 4.40283 3.02278 4.62698 3.24383 4.84859C3.48204 5.08765 3.71997 5.3267 3.95874 5.56519C3.98293 5.5891 4.00064 5.62144 4.03946 5.63156Z" fill="#8D8D8D"/>
<path d="M4.497 8.99623C3.16112 8.99623 1.82524 8.99229 0.489638 8.99988C0.249179 9.00129 0.000846306 8.82889 2.59097e-06 8.54709C-0.000841124 8.28497 0.204461 8.09176 0.487106 8.09176C3.1659 8.09148 5.84442 8.09148 8.52321 8.09176C8.77548 8.09176 8.96757 8.25207 8.99597 8.48156C9.0255 8.71921 8.89051 8.92057 8.66158 8.9847C8.60927 8.99932 8.55696 8.99595 8.50465 8.99595C7.16877 8.99651 5.83288 8.99623 4.497 8.99623Z" fill="#8D8D8D"/>
</svg>
