<svg width="12" height="19" viewBox="0 0 12 19" fill="none" xmlns="http://www.w3.org/2000/svg">
<path d="M6.80955 0.165092C6.89932 0.165475 6.98922 0.171867 7.07592 0.195157C7.138 0.211834 7.19882 0.229771 7.26633 0.241022C8.25095 0.525047 8.97048 1.5286 8.89474 2.49429C8.80007 3.63039 7.98586 4.5014 6.90657 4.61501C5.75153 4.74755 4.63437 3.91441 4.46395 2.75938C4.27629 1.5771 5.03718 0.450621 6.19362 0.191009C6.21431 0.186365 6.23421 0.185346 6.25488 0.180612C6.31153 0.167635 6.36918 0.149772 6.42716 0.153809C6.54984 0.162351 6.67889 0.164534 6.80955 0.165092ZM6.64148 3.87654C7.45568 3.87654 8.13734 3.21382 8.13734 2.39961C8.13734 1.58541 7.47462 0.922683 6.64148 0.922683C5.82727 0.922683 5.16454 1.58541 5.16454 2.39961C5.16454 3.21382 5.82727 3.87654 6.64148 3.87654Z" fill="white"/>
<path d="M5.90435 9.46248C5.88964 9.33012 5.72836 9.25873 5.62797 9.34624C5.42848 9.52012 5.24512 9.68065 5.07121 9.84118C4.82505 10.0684 4.55996 10.2767 4.31381 10.5229C3.97298 10.8447 3.55641 11.0152 3.10197 11.072C2.83688 11.1098 2.57179 11.1477 2.3067 11.1856C2.17416 11.2045 2.17415 11.2803 2.17415 11.3749C2.17415 12.1134 2.17415 12.8708 2.17415 13.6093C2.17415 14.9158 2.17415 16.2223 2.17415 17.5477C2.17415 17.6235 2.17415 17.7181 2.15522 17.7939C2.11735 17.9832 1.94693 18.0968 1.75758 18.0779C1.58717 18.059 1.43569 17.9264 1.41675 17.7371C1.41675 17.6803 1.41675 17.6235 1.41675 17.5667C1.41675 15.5028 1.41675 13.4199 1.41675 11.356C1.41675 11.2234 1.39782 11.1477 1.26528 11.0909C0.848707 10.8447 0.659356 10.485 0.678291 9.99267C0.697226 9.5193 0.924447 9.15953 1.35995 8.95125C2.04161 8.61042 2.72327 8.26958 3.40493 7.92875C3.65108 7.79621 3.85937 7.6258 4.01085 7.39858C4.31381 6.9252 4.61677 6.47076 5.07121 6.12993C5.63926 5.69442 6.26411 5.4672 6.96471 5.42933C7.34341 5.4104 7.74104 5.4104 8.11974 5.42933C8.76353 5.4672 9.23691 5.82697 9.63454 6.31928C10.2215 7.05774 10.5624 7.90982 10.7706 8.8187C11.0357 10.0116 11.1493 11.2234 11.1115 12.4353C11.0925 13.1737 10.8085 13.8554 10.3919 14.4613C10.1079 14.8779 9.84283 15.2945 9.74815 15.8057C9.69135 16.0897 9.67241 16.3738 9.65348 16.6578C9.63454 16.9986 9.65348 17.3395 9.65348 17.6613C9.65348 17.9264 9.502 18.0968 9.27478 18.0968C9.04756 18.0968 8.89608 17.9264 8.89608 17.6613C8.91501 17.0933 8.89608 16.5252 8.95288 15.9572C9.00969 15.3323 9.27478 14.7643 9.63454 14.253C9.9375 13.8365 10.1837 13.382 10.2783 12.8708C10.3162 12.6436 10.373 12.4163 10.373 12.1891C10.3541 10.9962 10.2783 9.82226 9.95644 8.66722C9.72922 7.87195 9.40732 7.13349 8.82034 6.5465C8.59312 6.31928 8.30909 6.18674 7.96827 6.20567C7.47596 6.22461 6.98364 6.20567 6.51027 6.28141C5.88541 6.39502 5.3931 6.75478 5.0144 7.26603C4.86292 7.47431 4.73038 7.6826 4.59783 7.89088C4.38955 8.19384 4.12446 8.44 3.80257 8.59148C3.10197 8.93231 2.42031 9.27314 1.73865 9.6329C1.53037 9.72758 1.41676 9.91693 1.45463 10.1063C1.46981 10.2733 1.57026 10.4038 1.70712 10.4783C1.77514 10.5153 1.85057 10.5418 1.928 10.5418C2.38244 10.485 2.83688 10.4282 3.29132 10.3335C3.46173 10.2956 3.65108 10.182 3.78363 10.0684C4.33274 9.61397 4.84399 9.12166 5.37417 8.66722C5.79074 8.30746 6.37772 8.42106 6.58601 8.89443C6.64281 9.00804 6.66175 9.14059 6.66175 9.27313C6.66175 12.0755 6.66175 14.8779 6.66175 17.6803C6.66175 17.7371 6.66175 17.7939 6.64282 17.8507C6.60495 18.04 6.45346 18.1537 6.24518 18.1537C6.07476 18.1347 5.92329 18.0022 5.90435 17.8128C5.90435 17.756 5.90435 17.6992 5.90435 17.6424C5.90435 14.9158 5.90435 12.1891 5.90435 9.46248Z" fill="white"/>
</svg>
