<svg width="17" height="17" viewBox="0 0 17 17" fill="none" xmlns="http://www.w3.org/2000/svg">
<path d="M16.479 11.895C16.484 11.9924 16.4721 12.0908 16.4355 12.1811C16.3091 12.4927 16.0604 12.6869 15.7588 12.8678C14.1584 13.8315 12.5752 14.7952 10.992 15.7588C10.579 16.017 10.1488 16.1202 9.66696 16.1202C7.49868 16.1202 5.33041 16.1202 3.17935 16.1202C3.05889 16.1202 2.97284 16.1546 2.86959 16.2063C2.73192 16.2923 2.55984 16.3611 2.40496 16.3783C1.94033 16.3955 1.4757 16.3955 1.01107 16.3783C0.58086 16.3783 0.219482 16.017 0.219482 15.5867C0.219482 13.6766 0.219482 11.7665 0.219482 9.85631C0.219482 9.46052 0.512027 9.09914 0.907823 9.08193C1.42408 9.04751 1.95754 9.06472 2.4738 9.08193C2.71472 9.08193 2.93843 9.2196 3.04168 9.44331C3.17636 9.69022 3.43747 9.40558 3.43747 9.12433C3.43747 8.13683 3.43747 7.15598 3.43747 6.1565C3.43747 5.97592 3.29109 5.82952 3.11051 5.82952C2.85238 5.82952 2.66309 5.69185 2.57705 5.46814C2.49101 5.24443 2.55984 5.02072 2.74913 4.84863C4.46999 3.35149 6.20805 1.85435 7.94611 0.37442C8.18702 0.167918 8.46236 0.167918 8.70328 0.37442C9.32279 0.907884 9.92509 1.42414 10.5446 1.9576C10.6269 2.03992 10.7683 1.97016 10.7683 1.85375C10.7683 1.84814 10.7683 1.84261 10.7683 1.83714C10.7683 1.63064 10.7683 1.42414 10.7683 1.21764C10.7855 0.890677 10.992 0.684173 11.319 0.666964C11.7492 0.666964 12.1794 0.666964 12.6096 0.666964C12.9882 0.666964 13.2119 0.890675 13.2119 1.26926C13.2119 2.19852 13.2119 3.12778 13.2119 4.05704C13.2119 4.19471 13.2463 4.28075 13.3496 4.3668C13.5389 4.52167 13.711 4.67655 13.883 4.83143C14.0895 5.00351 14.1412 5.22722 14.0551 5.45093C13.9691 5.67464 13.7798 5.7951 13.5217 5.7951C13.3506 5.7951 13.2119 5.93378 13.2119 6.10485C13.2119 7.66407 13.2119 9.22329 13.2119 10.7825C13.2119 11.1261 13.5487 11.3823 13.8658 11.2502C14.2444 11.1297 14.6402 10.9921 15.0188 10.8544C15.7026 10.598 16.3014 11.0378 16.4106 11.5665C16.412 11.5736 16.413 11.5844 16.4159 11.591C16.4233 11.6082 16.4328 11.621 16.4378 11.639C16.4647 11.736 16.4751 11.8169 16.479 11.895ZM10.7735 12.1625C10.7933 12.2383 10.859 12.2981 10.9334 12.2736C10.9415 12.2709 10.9496 12.2682 10.9576 12.2655C11.4739 12.0934 11.9901 11.9213 12.5236 11.7492C12.644 11.7148 12.6784 11.6632 12.6784 11.5255C12.6784 9.68423 12.6784 7.82571 12.6784 5.9844C12.6784 5.88936 12.6014 5.81231 12.5064 5.81231C12.5004 5.81231 12.4947 5.81231 12.4892 5.81231C11.8008 5.81231 11.0953 5.81231 10.4069 5.81231C10.252 5.81231 10.0972 5.81231 9.94229 5.81231C9.78742 5.7951 9.70137 5.69185 9.70137 5.55418C9.70137 5.41652 9.78742 5.29606 9.94229 5.27885C9.99392 5.27885 10.0455 5.27885 10.0972 5.27885C11.1813 5.27885 12.2827 5.27885 13.3668 5.27885C13.438 5.27885 13.4709 5.19038 13.417 5.14384C12.1286 4.03085 10.8665 2.94416 9.60412 1.85719C8.87862 1.2325 7.80523 1.23254 7.08082 1.85851C5.81402 2.95315 4.5475 4.05003 3.25442 5.15584C3.20509 5.19803 3.2349 5.27885 3.29981 5.27885C3.6956 5.27885 4.0914 5.27885 4.46999 5.27885C4.67649 5.27885 4.79695 5.3821 4.79695 5.55418C4.79695 5.72627 4.6937 5.81231 4.46999 5.82952C4.32439 5.82952 4.1788 5.82952 4.0332 5.82952C4.01614 5.82952 3.99614 5.84795 3.98851 5.86321C3.98538 5.86947 3.98815 5.86758 3.98815 5.87457C3.98815 7.09293 3.98815 8.3283 3.98815 9.54656C3.98815 9.65078 4.14343 9.65695 4.24507 9.68C4.69427 9.78186 5.07953 9.99081 5.45087 10.2693C5.63452 10.4005 5.87233 10.2658 5.89059 10.0409C5.89914 9.93556 5.91162 9.83427 5.93271 9.73585C6.15642 8.47963 7.30939 7.61921 8.58282 7.73967C9.80462 7.86013 10.7683 8.90985 10.7683 10.1661C10.7683 10.8135 10.7683 11.4778 10.7683 12.1255C10.7683 12.1385 10.7702 12.15 10.7735 12.1625ZM3.21376 15.4147C3.21376 15.4907 3.2754 15.5523 3.35143 15.5523C5.48529 15.5523 7.61914 15.5523 9.77021 15.5523C10.1144 15.5523 10.4069 15.4491 10.6995 15.277C11.5943 14.7263 12.4719 14.1929 13.3668 13.6594C14.1412 13.1948 14.8983 12.7301 15.6727 12.2655C15.8792 12.1278 15.9825 11.9558 15.9309 11.7492C15.862 11.4395 15.5867 11.3018 15.2597 11.4051C13.7626 11.9041 12.2827 12.386 10.7855 12.9022C10.3209 13.0571 9.83904 13.1431 9.34 13.1431C8.7377 13.1259 8.11819 13.1259 7.51589 13.1431C7.3266 13.1431 7.1373 13.1776 6.94801 13.212C6.62105 13.2808 6.34571 13.4529 6.07038 13.625C5.93271 13.711 5.77783 13.6766 5.69179 13.5561C5.60575 13.4357 5.62296 13.2808 5.76062 13.1776C6.19084 12.8678 6.65547 12.6269 7.18893 12.6097C7.75681 12.5753 8.32469 12.5925 8.89257 12.5925C9.13349 12.5925 9.23674 12.5236 9.23674 12.2827C9.23674 12.1278 9.20233 11.9558 9.13349 11.8181C8.9442 11.4567 8.60003 11.2674 8.18702 11.2502C7.72239 11.2502 7.24056 11.2502 6.77593 11.2502C6.60384 11.2502 6.43176 11.233 6.27688 11.1986C5.82946 11.1125 5.41645 10.9232 5.07228 10.6479C4.19234 9.96045 3.21376 11.0336 3.21376 12.1503C3.21376 13.2384 3.21376 14.3265 3.21376 15.4147ZM0.752945 12.7301C0.752945 13.6422 0.752945 14.5542 0.752945 15.4835C0.752945 15.7588 0.838987 15.8449 1.13153 15.8449C1.51012 15.8449 1.88871 15.8449 2.26729 15.8449C2.57705 15.8449 2.66309 15.7588 2.66309 15.4491C2.66309 14.4338 2.66309 13.4357 2.66309 12.4204C2.66309 11.6116 2.66309 10.7856 2.66309 9.97677C2.66309 9.70144 2.57705 9.61539 2.31892 9.61539C1.92313 9.61539 1.52733 9.61539 1.14874 9.61539C0.856196 9.61539 0.770154 9.70144 0.770154 9.99398C0.752946 10.906 0.752945 11.8181 0.752945 12.7301ZM9.7524 12.2109C9.75883 12.4055 9.92164 12.5684 10.1144 12.5408C10.2004 12.5236 10.2348 12.472 10.2348 12.386C10.2348 11.6288 10.252 10.8888 10.2348 10.1316C10.2004 8.87543 9.06466 7.99779 7.87727 8.30755C6.90356 8.55937 6.33929 9.40081 6.45611 10.5602C6.46116 10.6103 6.50187 10.6651 6.55221 10.6651C7.06847 10.6651 7.58473 10.6651 8.10098 10.6823C8.30748 10.6823 8.51399 10.7167 8.70328 10.7684C9.3793 11.0035 9.72901 11.5022 9.7524 12.2109ZM12.6612 1.88877C12.6612 1.51811 12.3608 1.21764 11.9901 1.21764C11.6195 1.21764 11.319 1.51812 11.319 1.88877C11.319 2.10238 11.319 2.31393 11.319 2.52548C11.319 2.63788 11.4468 2.70112 11.5305 2.77608C11.8536 3.06519 12.1886 3.35275 12.5236 3.62683C12.5713 3.67459 12.6612 3.63182 12.6612 3.56428C12.6612 3.00578 12.6612 2.44727 12.6612 1.88877Z" fill="white"/>
<path d="M14.2966 8.44536C14.3804 8.36157 14.5406 8.39709 14.6222 8.48299C14.63 8.49113 14.6368 8.49981 14.6425 8.5092C14.6572 8.5334 14.664 8.56164 14.6708 8.58912C14.6913 8.67298 14.6848 8.77985 14.6407 8.82395C14.5031 8.99603 14.331 9.16812 14.1589 9.30579C14.0557 9.39183 13.9352 9.37462 13.8319 9.27137C13.7287 9.16812 13.7115 9.04766 13.7975 8.94441C13.9524 8.77232 14.1245 8.60024 14.2966 8.44536Z" fill="white"/>
<path d="M15.3268 8.12042C15.2747 8.12729 15.1984 8.13324 15.1546 8.10417C15.0992 8.06738 15.0426 8.02806 15.0189 7.98053C14.9844 7.89449 14.9844 7.77403 15.0361 7.7052C15.1737 7.53311 15.3286 7.37824 15.4835 7.24057C15.5867 7.15453 15.7072 7.15452 15.8105 7.25777C15.9137 7.34382 15.9653 7.48149 15.8793 7.58474C15.7366 7.75919 15.5646 7.91902 15.4038 8.0777C15.3776 8.10356 15.3633 8.11562 15.3268 8.12042Z" fill="white"/>
<path d="M14.0392 7.17169C14.085 7.17169 14.1314 7.17546 14.1705 7.19951C14.3442 7.30659 14.7103 7.68619 14.7103 7.79119C14.7103 7.87724 14.6587 7.9977 14.5899 8.06653C14.5038 8.15257 14.3834 8.13536 14.2801 8.06653C14.1252 7.92886 13.9532 7.77399 13.8327 7.6019C13.7811 7.53307 13.7811 7.3954 13.8155 7.32657C13.8464 7.26479 13.9327 7.21688 13.9998 7.17039C14.0091 7.16399 14.028 7.17169 14.0392 7.17169Z" fill="white"/>
<path d="M15.914 8.96155C15.978 9.02549 15.9208 9.14392 15.8676 9.21708C15.84 9.2551 15.8103 9.28877 15.7764 9.30572C15.6903 9.34014 15.5699 9.34014 15.501 9.28851C15.3289 9.15085 15.1913 8.99597 15.0364 8.84109C14.9504 8.73784 14.9504 8.61738 15.0536 8.51413C15.1397 8.41088 15.2773 8.35925 15.3806 8.4453C15.5699 8.60017 15.742 8.78947 15.914 8.96155Z" fill="white"/>
<path d="M2.64528 2.0264C2.55924 2.0264 2.47319 2.0264 2.38715 2.0264C2.21507 2.00919 2.11182 1.90594 2.11182 1.75106C2.11182 1.59618 2.21507 1.47573 2.36994 1.47573C2.55924 1.45852 2.74853 1.47573 2.92062 1.47573C3.07549 1.47573 3.17874 1.59619 3.17874 1.73385C3.17874 1.79703 3.16156 1.85448 3.12954 1.90036C3.0312 2.04126 2.8171 2.0264 2.64528 2.0264Z" fill="white"/>
<path d="M3.74758 0.942182C3.74758 1.04543 3.74758 1.13148 3.74758 1.23473C3.73037 1.37239 3.60991 1.49285 3.47224 1.49285C3.33457 1.49285 3.21411 1.37239 3.21411 1.23473C3.21411 1.04543 3.21411 0.838931 3.21411 0.649638C3.21411 0.51197 3.33457 0.408719 3.47224 0.39151C3.60991 0.39151 3.73037 0.494761 3.74758 0.649638C3.74758 0.752889 3.74758 0.856139 3.74758 0.942182Z" fill="white"/>
<path d="M4.27919 2.02647C4.19315 2.02647 4.1071 2.02647 4.02106 2.02647C3.84897 2.02647 3.72852 1.90601 3.72852 1.75113C3.72852 1.59626 3.83177 1.49301 4.00385 1.4758C4.17594 1.4758 4.36523 1.4758 4.53732 1.4758C4.7094 1.4758 4.81265 1.59626 4.81265 1.75113C4.81265 1.90601 4.7094 2.02647 4.52011 2.02647C4.45127 2.02647 4.36523 2.02647 4.27919 2.02647Z" fill="white"/>
<path d="M3.74758 2.55987C3.74758 2.66312 3.74758 2.74916 3.74758 2.85241C3.73037 3.00729 3.60991 3.12775 3.47224 3.11054C3.33457 3.11054 3.21411 3.00729 3.21411 2.85241C3.21411 2.66312 3.21411 2.47382 3.21411 2.30174C3.21411 2.14686 3.31736 2.04361 3.47224 2.04361C3.62712 2.04361 3.74758 2.14686 3.74758 2.30174C3.74758 2.38778 3.74758 2.47382 3.74758 2.55987Z" fill="white"/>
<path d="M9.16735 5.55428C9.16735 5.69194 9.0641 5.7952 8.90922 5.8124C8.70272 5.84682 8.47901 5.88124 8.28971 5.96728C7.84229 6.19099 7.60137 6.56958 7.56696 7.06863C7.56696 7.15012 7.54713 7.23278 7.50659 7.30348C7.45608 7.39155 7.37431 7.44249 7.27441 7.43C7.13674 7.43 7.03349 7.32675 7.01628 7.15467C6.99908 7.03421 6.99907 6.91375 6.96466 6.79329C6.82699 6.25982 6.36236 5.88124 5.82889 5.8124C5.77727 5.8124 5.72564 5.79519 5.67402 5.79519C5.50193 5.77799 5.39868 5.65753 5.39868 5.50265C5.39868 5.34777 5.51914 5.24452 5.69123 5.24452C6.00098 5.22731 6.27632 5.14127 6.51724 4.95198C6.82699 4.69385 6.99907 4.36689 7.03349 3.95388C7.0507 3.74738 7.13674 3.62692 7.29162 3.62692C7.4637 3.62692 7.56695 3.73017 7.58416 3.95388C7.653 4.72827 8.15204 5.21011 8.92643 5.26173C9.04689 5.27894 9.16735 5.3994 9.16735 5.55428ZM7.02466 5.29008C6.88508 5.42609 6.88707 5.64878 7.02488 5.78659C7.02775 5.78945 7.03062 5.79232 7.03349 5.79519C7.16655 5.92825 7.38227 5.92825 7.51533 5.7952C7.64838 5.66214 7.64934 5.44546 7.51957 5.3092C7.51581 5.30526 7.51205 5.30131 7.5083 5.29737C7.37792 5.16047 7.16005 5.15814 7.02466 5.29008Z" fill="white"/>
</svg>
