<svg width="15" height="19" viewBox="0 0 15 19" fill="none" xmlns="http://www.w3.org/2000/svg">
<path d="M14.5524 18.5289C10.524 18.5289 6.49344 18.5289 2.46504 18.5289C2.14718 18.3646 2.05204 18.0964 2.06934 17.7526C2.08664 17.4218 2.06934 17.0888 2.07582 16.758C2.07799 16.6477 2.04988 16.6131 1.93527 16.6152C1.50065 16.6217 1.06602 16.6196 0.633559 16.6174C0.207583 16.6153 0 16.4098 0 15.9882C0 10.8678 0 5.7496 0 0.629235C0 0.209746 0.21407 0 0.637884 0C4.51492 0 8.39196 0 12.2712 0C12.7015 0 12.9177 0.21407 12.9198 0.642209C12.922 1.01629 12.9263 1.39037 12.9177 1.76445C12.9155 1.8877 12.9566 1.91365 13.0712 1.91365C13.4864 1.90717 13.9037 1.91149 14.3189 1.91149C14.8032 1.91149 14.9957 2.1061 14.9957 2.59046C14.9957 7.67407 14.9935 12.7577 15 17.8413C14.9957 18.1808 14.8789 18.4143 14.5524 18.5289ZM3.18509 10.2105C3.18509 12.5501 3.18726 14.8897 3.18077 17.2293C3.18077 17.3958 3.22834 17.4218 3.3797 17.4218C6.8113 17.4175 10.2429 17.4175 13.6745 17.4218C13.8432 17.4218 13.8951 17.3915 13.8951 17.2099C13.8886 12.5479 13.8886 7.88597 13.8951 3.22618C13.8951 3.05968 13.8648 3.00562 13.6831 3.00562C10.2515 3.01211 6.81995 3.01211 3.38835 3.00562C3.22402 3.00562 3.18077 3.04454 3.18293 3.21104C3.18726 5.54418 3.18509 7.87732 3.18509 10.2105ZM1.10062 8.3033C1.10062 10.191 1.10062 12.0787 1.10062 13.9664C1.10062 14.4313 1.10494 14.8962 1.09846 15.3589C1.0963 15.4887 1.13522 15.5233 1.26063 15.519C1.46605 15.5081 1.67147 15.5038 1.87473 15.5211C2.04988 15.5363 2.07799 15.4692 2.07799 15.3114C2.07366 11.084 2.07799 6.85455 2.06934 2.62722C2.06934 2.2034 2.24881 1.89852 2.78723 1.90068C5.70636 1.91365 8.62549 1.90716 11.5446 1.90716C11.5814 1.90716 11.6181 1.90284 11.6527 1.90716C11.7652 1.9223 11.8149 1.8877 11.8063 1.76229C11.7954 1.6066 11.7933 1.44875 11.8063 1.29307C11.8192 1.14819 11.7825 1.10278 11.6246 1.10278C8.18005 1.10711 4.73764 1.10711 1.29307 1.10278C1.13305 1.10278 1.09413 1.13954 1.09413 1.29955C1.10062 3.63702 1.10062 5.97016 1.10062 8.3033Z" fill="currentColor"/>
<path d="M8.32489 6.83292C8.32489 7.15295 8.33138 7.47297 8.32273 7.79083C8.32056 7.9076 8.353 7.94003 8.47193 7.94003C9.0817 7.93354 9.68931 7.93571 10.2991 7.93787C10.777 7.93787 10.9824 8.14977 10.9694 8.62332C10.9283 10.1326 9.75418 11.4408 8.24488 11.6549C6.56476 11.8949 5.03817 10.8483 4.64462 9.18985C4.26838 7.60487 5.22196 5.94853 6.80478 5.44039C7.10534 5.34309 7.41455 5.29984 7.72809 5.29119C8.06757 5.28038 8.31624 5.51607 8.32273 5.85772C8.33138 6.18207 8.32489 6.50858 8.32489 6.83292ZM9.77797 9.04714C9.15089 9.04714 8.5368 9.04714 7.9227 9.04714C7.40807 9.04714 7.21562 8.85469 7.21562 8.3379C7.21562 7.7238 7.21562 7.1097 7.21562 6.49344C6.28366 6.69886 5.62848 7.63514 5.68686 8.67305C5.74092 9.64826 6.57125 10.4829 7.58754 10.5781C8.57572 10.6732 9.5293 10.0137 9.77797 9.04714Z" fill="currentColor"/>
<path d="M8.74657 5.62418C8.74657 5.21983 8.7444 4.81764 8.74657 4.41328C8.74873 3.96136 8.97145 3.74729 9.41689 3.76675C11.1186 3.83594 12.4571 5.20253 12.496 6.91076C12.5047 7.27835 12.282 7.52053 11.9144 7.52269C11.0538 7.52702 10.191 7.52702 9.33039 7.52269C8.97794 7.52053 8.75522 7.29998 8.74873 6.94536C8.74224 6.50424 8.74873 6.06529 8.74657 5.62418ZM9.85151 4.94521C9.85151 5.41443 9.85151 5.8642 9.84935 6.3118C9.84935 6.37883 9.86665 6.4091 9.94017 6.4091C10.3661 6.40694 10.7943 6.40694 11.2203 6.4091C11.3003 6.4091 11.3132 6.37883 11.2895 6.3118C11.0408 5.62202 10.5694 5.17009 9.85151 4.94521Z" fill="currentColor"/>
<path d="M8.46757 14.0356C7.21342 14.0356 5.95928 14.0356 4.70513 14.0356C4.34403 14.0356 4.10185 13.828 4.08671 13.5145C4.07157 13.2161 4.26402 12.9782 4.56242 12.9307C4.61648 12.922 4.67053 12.922 4.72459 12.922C7.21991 12.922 9.71522 12.922 12.2127 12.922C12.5781 12.922 12.8246 13.1188 12.8506 13.4237C12.8787 13.7653 12.6322 14.027 12.2668 14.0335C11.9165 14.0399 11.5683 14.0356 11.218 14.0356C10.3012 14.0356 9.38439 14.0356 8.46757 14.0356Z" fill="currentColor"/>
<path d="M8.46986 15.0476C9.73049 15.0476 10.989 15.0454 12.2496 15.0476C12.6972 15.0476 12.974 15.4282 12.8118 15.8087C12.7275 16.0055 12.5739 16.1244 12.3555 16.1417C12.2907 16.1482 12.2236 16.146 12.1566 16.146C9.69806 16.146 7.23734 16.146 4.77878 16.146C4.67716 16.146 4.5712 16.1482 4.4739 16.1223C4.21226 16.0531 4.0609 15.8044 4.09117 15.5233C4.11928 15.266 4.33119 15.0584 4.60147 15.0519C5.00583 15.0411 5.41018 15.0476 5.81237 15.0476C6.69892 15.0454 7.58331 15.0476 8.46986 15.0476Z" fill="currentColor"/>
</svg>
