<svg width="19" height="19" viewBox="0 0 19 19" fill="none" xmlns="http://www.w3.org/2000/svg">
<path d="M8.67341 18.8536C8.43447 18.8541 8.19183 18.8329 7.96515 18.7574C6.74887 18.4292 5.93802 17.348 5.93802 16.1124C5.93802 15.1665 5.93802 14.2398 5.93802 13.2938C5.93802 13.1765 5.84294 13.0814 5.72566 13.0814C4.79897 13.0814 3.85298 13.0814 2.92629 13.0814C1.36251 13.0814 0.14624 11.8651 0.14624 10.3014C0.14624 9.89593 0.14624 9.4905 0.14624 9.08508C0.14624 7.61783 1.36251 6.38225 2.84907 6.38225C3.80898 6.38225 4.7519 6.38225 5.72565 6.38225C5.83228 6.38225 5.91872 6.29581 5.91872 6.18919C5.91872 5.2432 5.91872 4.31651 5.91872 3.37052C5.91872 1.80674 7.13499 0.609772 8.67947 0.609772C9.08489 0.609772 9.49032 0.609772 9.89574 0.609772C11.3823 0.609772 12.5986 1.82605 12.6179 3.3126C12.6179 4.66402 12.6179 6.01543 12.6179 7.34754C12.6179 7.75297 12.502 8.11978 12.2897 8.46729C11.8456 9.20092 10.861 9.31675 10.2432 8.71827C9.49031 8.00395 9.31656 6.71045 9.85713 5.82238C10.2819 5.12736 11.1699 4.97291 11.807 5.47487C11.8321 5.4916 11.8572 5.51195 11.8823 5.53435C11.92 5.56798 12.0001 5.54467 12.0001 5.49417C12.0001 4.77985 12.0001 4.08484 12.0001 3.37052C12.0001 2.328 11.3244 1.49784 10.3012 1.26617C10.1081 1.22756 9.89574 1.20825 9.68337 1.20825C9.25864 1.20825 8.83391 1.18895 8.42849 1.22756C7.30874 1.3627 6.53651 2.25077 6.53651 3.37052C6.53651 4.33582 6.53651 5.28181 6.53651 6.24711C6.53651 6.76837 6.32414 6.98073 5.80288 6.98073C4.83758 6.98073 3.89159 6.98073 2.92629 6.98073C1.88377 6.98073 1.05362 7.63713 0.802641 8.66035C0.764029 8.85341 0.744726 9.04647 0.744726 9.23953C0.744726 9.66426 0.725421 10.1083 0.764033 10.533C0.899174 11.6721 1.78725 12.425 2.9456 12.4443C3.89159 12.4443 4.83758 12.4443 5.80288 12.4443C6.30483 12.4443 6.53651 12.6567 6.53651 13.1779C6.53651 14.1432 6.53651 15.1085 6.53651 16.0545C6.53651 17.097 7.21221 17.9272 8.23543 18.1589C8.42849 18.1975 8.64085 18.2168 8.83391 18.2168C9.25865 18.2168 9.68338 18.2361 10.1081 18.1975C11.1892 18.0623 11.9422 17.2708 12.0001 16.1704C12.0325 15.7495 12.0106 15.3287 12.0026 14.8965C12.0004 14.7761 11.8852 14.7125 11.7684 14.7417C10.8417 15.1085 9.85713 14.7417 9.62546 13.7571C9.47101 13.1007 9.58684 12.4829 9.97296 11.9231C10.1081 11.73 10.3012 11.5562 10.4556 11.3439C10.7066 10.9964 10.9383 10.6296 11.1699 10.2627C11.9036 9.08508 13.8728 9.08508 14.6064 10.2627C14.7222 10.4365 14.8188 10.6102 14.9346 10.7647C15.1663 11.0736 15.3786 11.3825 15.6103 11.6721C16.1702 12.3285 16.3632 13.0814 16.1123 13.9116C15.9385 14.4714 15.4172 14.8576 14.8381 14.8769C14.3747 14.8962 13.9693 14.761 13.6025 14.5101C13.3762 14.3441 13.1146 14.2607 12.8269 14.2782C12.6796 14.2871 12.5793 14.4205 12.5793 14.568C12.5793 15.0699 12.5793 15.5719 12.5793 16.0738C12.5793 17.4201 11.6212 18.5557 10.2969 18.7742C10.2869 18.7759 10.2801 18.7759 10.2703 18.7783C10.2249 18.7895 10.1789 18.8169 10.1322 18.8196C9.65403 18.8472 9.16481 18.8526 8.67341 18.8536ZM12.9268 10.0504C12.3669 10.0118 11.9422 10.2627 11.6526 10.7261C11.6343 10.7504 11.618 10.7767 11.6018 10.8036C11.5286 10.9252 11.4358 11.0339 11.3521 11.1485C11.1089 11.4816 10.8735 11.8226 10.6101 12.1354C10.3205 12.5022 10.166 12.9077 10.1853 13.3903C10.2239 13.9888 10.5908 14.3556 11.1699 14.2784C11.3823 14.2591 11.5947 14.1818 11.7877 14.066C12.56 13.5641 13.2936 13.5448 14.0465 14.066C14.2782 14.2205 14.5485 14.2977 14.8381 14.2977C15.2049 14.2784 15.4945 14.0467 15.591 13.6992C15.7261 13.1586 15.6489 12.6567 15.2821 12.2513C14.8767 11.7686 14.5099 11.2667 14.1817 10.7261C13.8921 10.2434 13.4673 10.0118 12.9268 10.0504ZM10.1223 6.9336C10.1154 6.95706 10.1467 6.97557 10.1467 7.00004C10.1467 7.50199 10.3205 7.92672 10.668 8.29353C10.9962 8.64104 11.5754 8.56382 11.7877 8.13909C11.8843 7.92672 11.9615 7.67575 11.9808 7.44407C12.0194 6.90351 11.8843 6.40155 11.4595 6.01544C11.0734 5.66793 10.5521 5.74515 10.3398 6.2278C10.2493 6.44503 10.1927 6.69622 10.1223 6.9336Z" fill="white"/>
<path d="M18.3905 9.5629C18.3905 9.6939 18.3669 9.82372 18.3295 9.94926C18.2853 10.0975 18.246 10.2429 18.1781 10.3787C17.9271 10.9 17.5024 11.1895 16.9232 11.2475C16.5371 11.2861 16.1124 10.9965 15.9386 10.5911C15.5911 9.76091 16.1124 8.66047 16.9618 8.37088C17.5842 8.16342 18.1698 8.47184 18.3405 9.11616C18.3485 9.14667 18.3593 9.17578 18.3663 9.20657C18.3798 9.26651 18.3905 9.32956 18.3905 9.39101C18.3905 9.44831 18.3905 9.5056 18.3905 9.5629ZM17.7727 9.54854C17.7727 9.27826 17.6762 9.06589 17.5217 8.96936C17.3094 8.85353 17.1163 8.93075 16.9618 9.04659C16.5757 9.29757 16.4213 9.66438 16.4599 10.1084C16.4985 10.6104 16.9039 10.7841 17.3094 10.4752C17.6182 10.2436 17.7534 9.91535 17.7727 9.54854Z" fill="white"/>
<path d="M13.2156 7.28979C13.2349 6.59477 13.4472 5.97698 13.9878 5.51364C14.6828 4.93446 15.6095 5.12752 16.0342 5.91907C16.4976 6.80714 16.3238 7.94619 15.6288 8.67981C14.9724 9.35552 13.9299 9.20107 13.4859 8.37092C13.3121 8.04272 13.2156 7.6759 13.2156 7.28979ZM13.9011 6.79037C13.8005 7.20098 13.8437 7.64679 14.0138 8.03382C14.0296 8.06968 14.0466 8.105 14.065 8.13925C14.2581 8.54467 14.818 8.60259 15.1462 8.29369C15.6867 7.77243 15.8412 6.88436 15.4937 6.20865C15.2427 5.72601 14.7407 5.62947 14.3353 5.99629C14.108 6.22365 13.977 6.48068 13.9011 6.79037Z" fill="white"/>
<path d="M7.46047 9.8609C7.41765 9.64306 7.44207 9.41832 7.49395 9.20246C7.51324 9.12219 7.53456 9.04395 7.55945 8.96927C7.77182 8.44801 8.29308 8.21634 8.83365 8.37079C9.70242 8.62177 10.243 9.74151 9.91478 10.5717C9.70242 11.1122 9.20046 11.3439 8.6599 11.1895C8.0313 11.024 7.58696 10.5043 7.46047 9.8609ZM8.15794 9.12372C8.03741 9.36479 8.01236 9.65686 8.10933 9.90833C8.21998 10.1953 8.42673 10.4521 8.6792 10.5717C8.94949 10.7068 9.20046 10.6296 9.3356 10.3786C9.58658 9.85735 9.16185 9.0465 8.58267 8.93066C8.38961 8.89205 8.25447 8.96927 8.15794 9.12372Z" fill="white"/>
<path d="M1.36255 9.0657C1.38185 8.31277 2.03826 7.63706 2.81049 7.59845C3.02286 7.59845 3.15801 7.69498 3.17731 7.86873C3.19662 8.06179 3.08078 8.17763 2.86842 8.21624C2.30854 8.29346 2.03826 8.56375 1.98034 9.12362C1.96104 9.33598 1.82589 9.45182 1.65214 9.43251C1.45908 9.41321 1.36255 9.27806 1.36255 9.0657Z" fill="white"/>
<path d="M4.23961 8.21624C4.22031 8.21624 4.20099 8.21624 4.16238 8.21624C3.93071 8.21624 3.77627 8.0811 3.79557 7.90734C3.79557 7.71428 3.95002 7.59845 4.18169 7.59845C4.25891 7.59845 4.31683 7.59845 4.39406 7.59845C4.58712 7.61776 4.70295 7.73359 4.70295 7.88804C4.70295 8.00984 4.64603 8.11267 4.54549 8.16327C4.45289 8.20987 4.34328 8.21624 4.23961 8.21624Z" fill="white"/>
</svg>
