<svg width="27" height="25" viewBox="0 0 27 25" fill="none" xmlns="http://www.w3.org/2000/svg">
<path d="M16.5311 6.56819C16.5294 10.1694 13.602 13.0934 9.99905 13.0934C6.37893 13.0934 3.43602 10.1591 3.43774 6.55184C3.43947 2.95066 6.39786 -0.00343899 9.99819 3.00481e-06C13.6071 0.0025845 16.5328 2.94377 16.5311 6.56819ZM9.97668 2.08757C7.50446 2.10306 5.52618 4.09254 5.52962 6.56045C5.53306 9.02836 7.56212 11.0454 10.024 11.0256C12.4695 11.0066 14.4797 8.96985 14.465 6.52775C14.4504 4.07705 12.4239 2.07209 9.97668 2.08757Z" fill="#C0C0C0"/>
<path d="M19.9817 20.2303C20.0411 21.4239 19.6934 22.6002 18.8605 23.6207C18.5851 23.9572 18.2538 24.1792 17.8029 24.0983C16.9872 23.952 16.6559 23.0829 17.1524 22.4177C18.6806 20.3706 17.9139 17.2823 15.6069 16.1645C14.9314 15.8375 14.3188 15.8065 13.5968 16.1585C11.1969 17.3279 8.75305 17.3279 6.35312 16.1412C5.7 15.8186 5.12002 15.8125 4.48841 16.1137C2.99631 16.8253 2.20895 18.0146 2.0859 19.6478C2.05492 20.0634 2.05062 20.4842 2.11258 20.9024C2.19346 21.4497 2.41891 21.9229 2.77086 22.3446C3.18734 22.8437 3.15034 23.477 2.69255 23.8651C2.23219 24.2558 1.60746 24.1843 1.18238 23.6835C0.411369 22.774 0.0284472 21.7259 0.0034927 20.5281C-0.0223223 19.3208 0.0852408 18.1488 0.654891 17.0594C1.53518 15.3754 2.88702 14.2877 4.7457 13.8558C5.5279 13.6742 6.28686 13.7775 6.99247 14.1569C8.10079 14.7533 9.27537 15.0028 10.5274 14.9047C11.2399 14.8488 11.9481 14.712 12.5608 14.3574C14.3988 13.2939 16.0441 13.8024 17.5757 14.9589C19.2709 16.2385 20.0127 18.0094 19.9817 20.2303Z" fill="#C0C0C0"/>
<path d="M23.4332 6.59142C23.3738 8.58003 22.6105 10.2778 21.047 11.5926C20.5453 12.0143 19.9086 11.9773 19.5256 11.5247C19.1436 11.072 19.2047 10.4318 19.7072 10.0136C22.0392 8.07491 21.8163 4.52106 19.3854 2.85857C18.8183 2.47135 18.191 2.23557 17.5155 2.12629C16.8357 2.01614 16.4356 1.51791 16.5388 0.899215C16.6326 0.334727 17.1894 -0.0309858 17.8287 0.0696925C19.2597 0.296004 20.5023 0.90782 21.5203 1.943C22.7749 3.21912 23.3893 4.76716 23.4332 6.59142Z" fill="#C0C0C0"/>
<path d="M26.8571 20.2355C26.9363 21.5022 26.5405 22.7034 25.6447 23.7334C25.3108 24.1172 24.8659 24.2153 24.4245 24.0226C23.9917 23.8341 23.7705 23.4271 23.8179 22.9237C23.8342 22.7456 23.8927 22.5804 24.0097 22.4556C24.8264 21.5874 24.89 20.5221 24.7567 19.4361C24.5329 17.6136 23.5184 16.4304 21.7518 15.8995C21.1245 15.711 20.813 15.1672 20.9816 14.5906C21.1503 14.0158 21.7096 13.7327 22.3421 13.9031C25.0079 14.6208 26.8502 17.0224 26.8563 19.7872C26.8571 19.9059 26.8571 20.0238 26.8571 20.2355Z" fill="#C0C0C0"/>
</svg>
