<svg width="16" height="16" viewBox="0 0 16 16" fill="none" xmlns="http://www.w3.org/2000/svg">
<path d="M6.30514 15.0996C5.90728 15.0996 5.41097 14.9113 5.6127 14.5684C6.14394 13.6577 6.67519 12.7318 7.20643 11.8211C7.25213 11.7526 7.22635 11.6645 7.16275 11.6121C6.9816 11.463 6.79497 11.321 6.62965 11.1684C6.11358 10.6827 5.71895 10.1211 5.44574 9.46846C5.41538 9.37739 5.36984 9.34703 5.27877 9.34703C4.71717 9.34703 4.15557 9.34703 3.57879 9.34703C3.39665 9.34703 3.2904 9.25597 3.27523 9.10418C3.26005 8.92204 3.3663 8.78543 3.57879 8.78543C4.0645 8.78543 4.56539 8.78543 5.0511 8.78543C5.13055 8.78543 5.19103 8.71408 5.17785 8.63573C5.1482 8.45944 5.1174 8.282 5.08139 8.09936C5.06428 8.01257 4.98777 7.95062 4.89931 7.95062C3.65469 7.95062 2.39488 7.95062 1.15025 7.95062C0.846685 7.95062 0.755615 7.87473 0.755615 7.57116C0.755615 5.43101 0.755615 3.27568 0.755615 1.13553C0.755615 0.847143 0.846686 0.756073 1.13507 0.756073C3.29041 0.756073 5.43056 0.756073 7.58589 0.756073C7.87428 0.756073 7.96535 0.831965 7.96535 1.13553C7.96535 1.68195 7.96535 2.24355 7.96535 2.78998C7.96535 2.86843 8.04625 2.92097 8.11879 2.89108C8.82902 2.59843 9.54244 2.47395 10.3033 2.49996C10.4585 2.50527 10.5912 2.38369 10.5912 2.22837C10.5912 2.09177 10.5912 1.95516 10.5912 1.80338C10.5912 1.63642 10.7126 1.51499 10.8644 1.51499C11.0314 1.51499 11.1376 1.62124 11.1376 1.80338C11.1376 2.03106 11.1376 2.25873 11.1376 2.48641C11.1376 2.57748 11.168 2.60783 11.2591 2.63819C11.6269 2.73015 11.9876 2.47083 11.9876 2.09169C11.9876 2.02594 11.9876 1.9602 11.9876 1.89445C11.9876 1.79351 11.9864 1.68406 12.0507 1.6063C12.1059 1.53972 12.1878 1.50519 12.276 1.51499C12.4278 1.51499 12.534 1.62124 12.534 1.7882C12.534 2.19802 12.534 2.62301 12.534 3.03283C12.534 3.1239 12.5644 3.16943 12.6403 3.21497C13.9001 3.95871 14.6438 5.09708 14.9626 6.50868C15.0064 6.6838 15.0265 6.85893 15.0513 7.03406C15.0706 7.16961 15.084 7.30614 15.084 7.44305C15.084 7.59541 15.084 7.74777 15.084 7.90013C15.084 7.94332 15.0755 7.98717 15.0667 8.02945C15.0606 8.05873 15.0514 8.08713 15.0475 8.11678C15.021 8.31627 15.0039 8.52706 14.9474 8.72472C14.5528 10.2577 13.6421 11.3658 12.2305 12.064C12.1575 12.0883 12.1332 12.1867 12.1627 12.2578C12.1637 12.2601 12.1647 12.2625 12.1656 12.2648C12.1685 12.2725 12.1718 12.2801 12.1759 12.2872C12.6142 13.0577 13.0673 13.8282 13.5055 14.5836C13.6949 14.9204 13.202 15.0996 12.8155 15.0996C10.6622 15.0996 8.48002 15.0996 6.30514 15.0996ZM13.4606 4.60405C13.1207 4.21402 12.5644 4.50388 12.5644 5.02119C12.5644 5.29441 12.5644 5.56762 12.5644 5.82565C12.5644 6.02297 12.443 6.12922 12.2608 6.11404C12.0939 6.09886 12.0028 5.97743 12.0028 5.78011C12.0028 5.06673 12.0028 4.33817 12.0028 3.62479C12.0028 3.57925 11.9724 3.48818 11.9421 3.473C11.8879 3.44928 11.8329 3.42631 11.7771 3.40376C11.486 3.286 11.168 3.50808 11.168 3.82211C11.168 4.00425 11.0162 4.12567 10.8341 4.09532C10.6975 4.08014 10.6064 3.95871 10.6064 3.79175C10.6064 3.39503 10.3054 3.05477 9.9091 3.07215C9.28763 3.09942 8.69427 3.25217 8.11713 3.51854C8.01088 3.56407 7.98053 3.62478 7.98053 3.74621C7.98053 5.0212 7.98053 6.29618 7.98053 7.57116C7.98053 7.88991 7.90463 7.96581 7.58589 7.96581C6.99393 7.96581 6.40197 7.96581 5.81002 7.96581C5.72474 7.96581 5.66176 8.04533 5.67991 8.12865C5.72315 8.32722 5.759 8.51838 5.79484 8.70954C5.81002 8.78543 5.84037 8.80062 5.91627 8.80062C6.08323 8.80062 6.25019 8.80062 6.41715 8.80062C6.59929 8.80062 6.7359 8.92204 6.7359 9.089C6.7359 9.25596 6.61447 9.36222 6.41715 9.36222C6.23358 9.36222 6.11316 9.55301 6.20383 9.71264C6.51666 10.2634 6.91393 10.7127 7.41613 11.0879C7.49661 11.148 7.61685 11.1217 7.66178 11.0318C8.2082 10.0908 8.75462 9.14972 9.28587 8.20866C9.43765 7.93544 9.72604 7.95062 9.86265 8.20866C10.3484 9.07382 10.8492 9.92381 11.3501 10.789C11.6132 11.2624 12.2074 11.473 12.6524 11.1644C13.6045 10.5041 14.3888 9.37602 14.5072 7.85955C14.6157 6.51512 14.1432 5.38754 13.4606 4.60405ZM4.36048 7.38903C6.01734 7.38903 7.38857 6.00641 7.38857 4.34956C7.38857 2.6927 6.01164 1.33285 4.35479 1.33285C2.69794 1.33285 1.33239 2.70408 1.33239 4.36094C1.33239 6.01779 2.70363 7.38903 4.36048 7.38903ZM11.2164 11.7008C10.4881 10.4416 8.65874 10.433 7.93049 11.6923C7.20351 12.9494 8.12449 14.5229 9.57664 14.5229C11.0288 14.5229 11.9434 12.9579 11.2164 11.7008Z" fill="white"/>
<path d="M3.30725 10.7588C2.98851 10.7588 2.65458 10.7588 2.33584 10.7588C2.13852 10.7588 2.01709 10.6525 2.01709 10.4856C2.01709 10.3034 2.13852 10.1972 2.33584 10.1972C3.00368 10.1972 3.65635 10.1972 4.3242 10.1972C4.52152 10.1972 4.65813 10.3186 4.65813 10.4856C4.65813 10.6525 4.5367 10.7588 4.3242 10.7588C3.9751 10.7588 3.64118 10.7588 3.30725 10.7588Z" fill="white"/>
<path d="M2.27339 9.36226C2.10642 9.36226 2.00018 9.24083 2.01535 9.07386C2.01535 8.92208 2.13678 8.80065 2.30374 8.81583C2.45553 8.81583 2.59213 8.95244 2.57695 9.10422C2.56178 9.25601 2.44035 9.36226 2.27339 9.36226Z" fill="white"/>
</svg>
